<svg width="15" height="13" viewBox="0 0 15 13" fill="none" xmlns="http://www.w3.org/2000/svg">
<path d="M1.11249 5.87758H12.3341L8.03715 1.78483C7.81215 1.57051 7.80343 1.21445 8.01774 0.989454C8.23177 0.764735 8.58783 0.755735 8.81311 0.970048L13.7204 5.64442C13.9327 5.85704 14.05 6.13942 14.05 6.44008C14.05 6.74045 13.9327 7.02311 13.7105 7.24501L8.81283 11.9099C8.70399 12.0136 8.56449 12.0651 8.42499 12.0651C8.27649 12.0651 8.12799 12.0066 8.01746 11.8905C7.80315 11.6655 7.81187 11.3097 8.03687 11.0954L12.3518 7.00258H1.11249C0.801988 7.00258 0.549988 6.75058 0.549988 6.44008C0.549988 6.12958 0.801988 5.87758 1.11249 5.87758Z" fill="#1A1A1A"/>
</svg>
