<svg width="21" height="21" viewBox="0 0 21 21" fill="none" xmlns="http://www.w3.org/2000/svg">
<g clip-path="url(#clip0_2_37)">
<path d="M20.64 11.1133C20.64 10.6244 20.4733 10.2133 20.14 9.87998C19.8067 9.54664 19.3956 9.37998 18.9067 9.37998H3.77335V3.97998C3.77335 3.53553 3.9289 3.15775 4.24001 2.84664C4.46224 2.62442 4.71779 2.49109 5.00668 2.44664C5.29557 2.4022 5.59557 2.42442 5.90668 2.51331C5.50668 3.13553 5.35113 3.82442 5.44001 4.57998C5.5289 5.33553 5.84001 5.97998 6.37335 6.51331L6.50668 6.71331C6.64002 6.8022 6.78446 6.84664 6.94001 6.84664C7.09557 6.84664 7.21779 6.8022 7.30668 6.71331L11.1067 2.91331C11.24 2.77998 11.3067 2.63553 11.3067 2.47998C11.3067 2.32442 11.24 2.17998 11.1067 2.04664L10.9733 1.91331C10.3956 1.33553 9.69557 1.02442 8.87335 0.979977C8.05113 0.935534 7.3289 1.15775 6.70668 1.64664C6.17335 1.33553 5.59557 1.21331 4.97335 1.27998C4.35113 1.34664 3.81779 1.6022 3.37335 2.04664C2.84001 2.57998 2.57335 3.22442 2.57335 3.97998V9.37998H2.37335C1.88446 9.37998 1.47335 9.54664 1.14001 9.87998C0.806681 10.2133 0.640015 10.6244 0.640015 11.1133C0.640015 11.5133 0.751126 11.8578 0.973348 12.1466C1.19557 12.4355 1.46224 12.6466 1.77335 12.78V14.0466C1.77335 15.1133 2.06224 16.0911 2.64001 16.98C3.21779 17.8689 3.95113 18.5578 4.84001 19.0466L4.30668 20.1133C4.21779 20.2911 4.20668 20.4466 4.27335 20.58C4.34001 20.7133 4.44001 20.8244 4.57335 20.9133C4.70668 21.0022 4.85113 21.0133 5.00668 20.9466C5.16224 20.88 5.28446 20.78 5.37335 20.6466L5.97335 19.4466C6.41779 19.5355 6.88446 19.58 7.37335 19.58H13.9067C14.3956 19.58 14.8622 19.5355 15.3067 19.4466L15.9067 20.6466C15.9956 20.78 16.1178 20.88 16.2733 20.9466C16.4289 21.0133 16.5733 21.0022 16.7067 20.9133C16.84 20.8244 16.94 20.7133 17.0067 20.58C17.0733 20.4466 17.0622 20.2911 16.9733 20.1133L16.44 19.0466C17.3289 18.5578 18.0622 17.8689 18.64 16.98C19.2178 16.0911 19.5067 15.1133 19.5067 14.0466V12.78C19.8178 12.6466 20.0845 12.4355 20.3067 12.1466C20.5289 11.8578 20.64 11.5133 20.64 11.1133ZM9.84002 2.51331L6.97335 5.44664C6.66224 5.0022 6.5289 4.53553 6.57335 4.04664C6.61779 3.55775 6.81779 3.13553 7.17335 2.77998C7.5289 2.42442 7.96224 2.22442 8.47335 2.17998C8.98446 2.13553 9.44001 2.24664 9.84002 2.51331ZM2.37335 10.58H18.9067C19.04 10.58 19.1622 10.6355 19.2733 10.7466C19.3845 10.8578 19.44 10.9911 19.44 11.1466C19.44 11.3022 19.3845 11.4355 19.2733 11.5466C19.1622 11.6578 19.04 11.7133 18.9067 11.7133H2.37335C2.24001 11.7133 2.11779 11.6578 2.00668 11.5466C1.89557 11.4355 1.84001 11.3022 1.84001 11.1466C1.84001 10.9911 1.89557 10.8578 2.00668 10.7466C2.11779 10.6355 2.24001 10.58 2.37335 10.58ZM18.3067 14.0466C18.3067 14.8466 18.1067 15.58 17.7067 16.2466C17.3067 16.9133 16.7733 17.4466 16.1067 17.8466C15.44 18.2466 14.7067 18.4466 13.9067 18.4466H7.37335C6.57335 18.4466 5.84001 18.2466 5.17335 17.8466C4.50668 17.4466 3.97335 16.9133 3.57335 16.2466C3.17335 15.58 2.97335 14.8466 2.97335 14.0466V12.9133H18.3067V14.0466ZM9.10668 6.91331C9.10668 7.09109 9.16224 7.23553 9.27335 7.34664C9.38446 7.45776 9.51779 7.51331 9.67335 7.51331C9.8289 7.51331 9.96224 7.45776 10.0733 7.34664C10.1845 7.23553 10.24 7.09109 10.24 6.91331C10.24 6.73553 10.1845 6.59109 10.0733 6.47998C9.96224 6.36887 9.8289 6.31331 9.67335 6.31331C9.51779 6.31331 9.38446 6.36887 9.27335 6.47998C9.16224 6.59109 9.10668 6.73553 9.10668 6.91331ZM10.7733 5.24664C10.7733 5.42442 10.8289 5.56887 10.94 5.67998C11.0511 5.79109 11.1845 5.84664 11.34 5.84664C11.4956 5.84664 11.6289 5.79109 11.74 5.67998C11.8511 5.56887 11.9067 5.42442 11.9067 5.24664C11.9067 5.06887 11.8511 4.92442 11.74 4.81331C11.6289 4.7022 11.4956 4.64664 11.34 4.64664C11.1845 4.64664 11.0511 4.7022 10.94 4.81331C10.8289 4.92442 10.7733 5.06887 10.7733 5.24664ZM11.1733 7.31331C11.1733 7.44664 11.2289 7.57998 11.34 7.71331C11.4511 7.84664 11.5845 7.91331 11.74 7.91331C11.8956 7.91331 12.0289 7.84664 12.14 7.71331C12.2511 7.57998 12.3067 7.43553 12.3067 7.27998C12.3067 7.12442 12.2511 6.99109 12.14 6.87998C12.0289 6.76887 11.8956 6.71331 11.74 6.71331C11.5845 6.71331 11.4511 6.76887 11.34 6.87998C11.2289 6.99109 11.1733 7.13553 11.1733 7.31331Z" fill="#1A1A1A"/>
</g>
<defs>
<clipPath id="clip0_2_37">
<rect width="20" height="20" fill="white" transform="matrix(1 0 0 -1 0.640015 20.98)"/>
</clipPath>
</defs>
</svg>
