<svg width="20" height="21" viewBox="0 0 20 21" fill="none" xmlns="http://www.w3.org/2000/svg">
<g clip-path="url(#clip0_2_33)">
<path d="M17.5333 7.24668H8.73333C8.28889 7.24668 7.86667 7.38001 7.46667 7.64668C7.37778 6.98001 7.1 6.43557 6.63333 6.01335C6.16667 5.59112 5.62222 5.38001 5 5.38001C4.51111 5.38001 4.06667 5.49112 3.66667 5.71335V4.71335C3.66667 4.53557 3.61111 4.39112 3.5 4.28001C3.38889 4.1689 3.24444 4.11335 3.06667 4.11335H0.6C0.422222 4.11335 0.277778 4.1689 0.166667 4.28001C0.0555556 4.39112 0 4.53557 0 4.71335V17.2467C0 17.4245 0.0555556 17.5689 0.166667 17.68C0.277778 17.7911 0.422222 17.8467 0.6 17.8467H3.06667C3.24444 17.8467 3.38889 17.7911 3.5 17.68C3.61111 17.5689 3.66667 17.4245 3.66667 17.2467V15.3133H16.3333V17.2467C16.3333 17.4245 16.3889 17.5689 16.5 17.68C16.6111 17.7911 16.7556 17.8467 16.9333 17.8467H19.4C19.5778 17.8467 19.7222 17.7911 19.8333 17.68C19.9444 17.5689 20 17.4245 20 17.2467V9.71335C20 9.04668 19.7556 8.4689 19.2667 7.98001C18.7778 7.49112 18.2 7.24668 17.5333 7.24668ZM5 6.51335C5.35556 6.51335 5.65556 6.64668 5.9 6.91335C6.14444 7.18001 6.26667 7.49112 6.26667 7.84668C6.26667 8.20224 6.14444 8.50223 5.9 8.74668C5.65556 8.99112 5.35556 9.11335 5 9.11335C4.64444 9.11335 4.33333 8.99112 4.06667 8.74668C3.8 8.50223 3.66667 8.20224 3.66667 7.84668C3.66667 7.49112 3.8 7.18001 4.06667 6.91335C4.33333 6.64668 4.64444 6.51335 5 6.51335ZM3.66667 9.91335C4.06667 10.18 4.5 10.3133 4.96667 10.3133C5.43333 10.3133 5.86667 10.18 6.26667 9.91335V11.6467H3.66667V9.91335ZM18.8 16.6467H17.4667V14.7133C17.4667 14.58 17.4111 14.4578 17.3 14.3467C17.1889 14.2356 17.0667 14.18 16.9333 14.18H3.06667C2.93333 14.18 2.81111 14.2356 2.7 14.3467C2.58889 14.4578 2.53333 14.58 2.53333 14.7133V16.6467H1.2V5.31335H2.53333V12.2467C2.53333 12.38 2.58889 12.5133 2.7 12.6467C2.81111 12.78 2.93333 12.8467 3.06667 12.8467H18.8V16.6467ZM18.8 11.6467H7.46667V9.71335C7.46667 9.35779 7.58889 9.05779 7.83333 8.81335C8.07778 8.5689 8.37778 8.44668 8.73333 8.44668H17.5333C17.8889 8.44668 18.1889 8.5689 18.4333 8.81335C18.6778 9.05779 18.8 9.35779 18.8 9.71335V11.6467Z" fill="#1A1A1A"/>
</g>
<defs>
<clipPath id="clip0_2_33">
<rect width="20" height="20" fill="white" transform="matrix(1 0 0 -1 0 20.98)"/>
</clipPath>
</defs>
</svg>
