<svg width="16" height="17" viewBox="0 0 16 17" fill="none" xmlns="http://www.w3.org/2000/svg">
<path d="M10.9333 0.686722C9.86667 0.686722 8.88889 1.00672 8 1.64672C7.11111 1.00672 6.13333 0.686722 5.06667 0.686722C4.14222 0.686722 3.29778 0.917832 2.53333 1.38006C1.76889 1.84228 1.15556 2.45561 0.693333 3.22005C0.231111 3.9845 0 4.82894 0 5.75339C0 7.63783 1.35111 9.96672 4.05333 12.7401C4.87111 13.5934 5.77778 14.4467 6.77333 15.3001C7.27111 15.7267 7.69778 16.0645 8.05333 16.3134C8.16 16.4201 8.28444 16.4734 8.42667 16.4734C8.56889 16.4734 8.69333 16.4201 8.8 16.3134C9.40444 15.7801 10.0622 15.1401 10.7733 14.3934C12.1956 12.9712 13.3333 11.6201 14.1867 10.3401C15.3956 8.56228 16 7.03339 16 5.75339C16 4.82894 15.7689 3.9845 15.3067 3.22005C14.8444 2.45561 14.2311 1.84228 13.4667 1.38006C12.7022 0.917832 11.8578 0.686722 10.9333 0.686722ZM8.37333 15.0334C6.70222 13.7178 5.22667 12.3134 3.94667 10.8201C2.13333 8.72228 1.22667 7.03339 1.22667 5.75339C1.22667 5.07783 1.39556 4.44672 1.73333 3.86005C2.07111 3.27339 2.53333 2.80228 3.12 2.44672C3.70667 2.09117 4.35556 1.91339 5.06667 1.91339C6.02667 1.91339 6.86222 2.23339 7.57333 2.87339H7.62667C7.73333 2.98005 7.86667 3.03339 8.02667 3.03339C8.18667 3.03339 8.32 2.98005 8.42667 2.87339C9.13778 2.23339 9.97333 1.91339 10.9333 1.91339C11.6444 1.91339 12.2933 2.09117 12.88 2.44672C13.4667 2.80228 13.9289 3.27339 14.2667 3.86005C14.6044 4.44672 14.7733 5.07783 14.7733 5.75339C14.7733 7.03339 13.9733 8.72228 12.3733 10.8201C11.2 12.2778 9.86667 13.6823 8.37333 15.0334Z" fill="#1A1A1A"/>
</svg>
