<svg width="36" height="36" viewBox="0 0 36 36" fill="none" xmlns="http://www.w3.org/2000/svg">
<g clip-path="url(#clip0_2_731)">
<path d="M17.9999 31.7464H7.14994C6.52772 31.7464 6.02217 31.5325 5.63328 31.1047C5.24439 30.6769 5.04994 30.1908 5.04994 29.6464V15.063L16.0166 5.37971C16.5611 4.91304 17.2222 4.67971 17.9999 4.67971C18.7777 4.67971 19.4388 4.91304 19.9833 5.37971L33.8666 17.6297C34.0222 17.7853 34.2166 17.8436 34.4499 17.8047C34.6833 17.7658 34.8777 17.6686 35.0333 17.513C35.1888 17.3575 35.2472 17.163 35.2083 16.9297C35.1694 16.6964 35.0722 16.5019 34.9166 16.3464L32.5833 14.363V6.07971C32.5833 4.91304 32.1555 3.90193 31.2999 3.04638C30.4444 2.19082 29.4333 1.78249 28.2666 1.82137C27.0999 1.86026 26.1083 2.28804 25.2916 3.10471C24.4749 3.92137 24.0277 4.91304 23.9499 6.07971V6.77971L21.0333 4.21304C20.1777 3.43526 19.1666 3.04638 17.9999 3.04638C16.8333 3.04638 15.8222 3.43526 14.9666 4.21304L1.08328 16.3464C0.849943 16.5019 0.733276 16.6964 0.733276 16.9297C0.733276 17.163 0.811054 17.3575 0.96661 17.513C1.12217 17.6686 1.31661 17.7658 1.54994 17.8047C1.78328 17.8436 1.97772 17.7853 2.13328 17.6297L3.41661 16.5797V29.6464C3.41661 30.6575 3.78605 31.5325 4.52494 32.2714C5.26383 33.0103 6.13883 33.3797 7.14994 33.3797H17.9999C18.2333 33.3797 18.4277 33.3019 18.5833 33.1464C18.7388 32.9908 18.8166 32.7964 18.8166 32.563C18.8166 32.3297 18.7388 32.1353 18.5833 31.9797C18.4277 31.8242 18.2333 31.7464 17.9999 31.7464ZM25.5833 6.07971C25.6611 5.30193 25.9527 4.66026 26.4583 4.15471C26.9638 3.64915 27.5861 3.41582 28.3249 3.45471C29.0638 3.4936 29.6861 3.76582 30.1916 4.27138C30.6972 4.77693 30.9499 5.37971 30.9499 6.07971V12.8464L25.5833 8.17971V6.07971ZM17.9999 10.0464C16.9111 10.0464 15.9777 10.4353 15.1999 11.213C14.4222 11.9908 14.0333 12.9242 14.0333 14.013C14.0333 15.1019 14.4222 16.0353 15.1999 16.813C15.9777 17.5908 16.9111 17.9797 17.9999 17.9797C19.0888 17.9797 20.0222 17.5908 20.7999 16.813C21.5777 16.0353 21.9666 15.1019 21.9666 14.013C21.9666 12.9242 21.5777 11.9908 20.7999 11.213C20.0222 10.4353 19.0888 10.0464 17.9999 10.0464ZM20.3333 14.013C20.3333 14.713 20.0999 15.2769 19.6333 15.7047C19.1666 16.1325 18.6222 16.3464 17.9999 16.3464C17.3777 16.3464 16.8333 16.1325 16.3666 15.7047C15.8999 15.2769 15.6666 14.7325 15.6666 14.0714C15.6666 13.4103 15.8999 12.8464 16.3666 12.3797C16.8333 11.913 17.3777 11.6797 17.9999 11.6797C18.6222 11.6797 19.1666 11.913 19.6333 12.3797C20.0999 12.8464 20.3333 13.3908 20.3333 14.013ZM35.0333 32.0964L32.2333 29.1797C32.9333 28.1686 33.2833 27.0408 33.2833 25.7964C33.2833 24.2408 32.7194 22.9186 31.5916 21.8297C30.4638 20.7408 29.1222 20.1964 27.5666 20.1964C26.0111 20.1964 24.6694 20.7408 23.5416 21.8297C22.4138 22.9186 21.8499 24.2603 21.8499 25.8547C21.8499 27.4492 22.4138 28.7908 23.5416 29.8797C24.6694 30.9686 26.0111 31.513 27.5666 31.513C28.8888 31.513 30.0555 31.1242 31.0666 30.3464L33.7499 33.1464C33.9055 33.3019 34.0999 33.3992 34.3333 33.438C34.5666 33.4769 34.7805 33.4186 34.9749 33.263C35.1694 33.1075 35.2666 32.913 35.2666 32.6797C35.2666 32.4464 35.1888 32.2519 35.0333 32.0964ZM27.5666 29.8797C26.4777 29.8797 25.5249 29.4908 24.7083 28.713C23.8916 27.9353 23.4833 26.9825 23.4833 25.8547C23.4833 24.7269 23.8916 23.7742 24.7083 22.9964C25.5249 22.2186 26.4972 21.8297 27.6249 21.8297C28.7527 21.8297 29.7055 22.2186 30.4833 22.9964C31.2611 23.7742 31.6499 24.7269 31.6499 25.8547C31.6499 26.9825 31.2611 27.9353 30.4833 28.713C29.7055 29.4908 28.7333 29.8797 27.5666 29.8797Z" fill="#1A1A1A"/>
</g>
<defs>
<clipPath id="clip0_2_731">
<rect width="35" height="35" fill="white" transform="matrix(1 0 0 -1 0.5 35.1299)"/>
</clipPath>
</defs>
</svg>
