<svg width="20" height="21" viewBox="0 0 20 21" fill="none" xmlns="http://www.w3.org/2000/svg">
<g clip-path="url(#clip0_2_544)">
<path d="M16.1334 3.12342C15.2889 2.32342 14.3445 1.7012 13.3 1.25675C12.2556 0.812309 11.1556 0.590086 10 0.590086C8.84449 0.590086 7.73337 0.812309 6.66671 1.25675C5.60004 1.7012 4.66671 2.32342 3.86671 3.12342C3.06671 3.92342 2.44449 4.85675 2.00004 5.92342C1.5556 6.99009 1.33337 8.1012 1.33337 9.25675C1.33337 10.4123 1.5556 11.5123 2.00004 12.5568C2.44449 13.6012 3.06671 14.5456 3.86671 15.3901L8.46671 19.9901C8.86671 20.3901 9.36671 20.5901 9.96671 20.5901C10.5667 20.5901 11.0889 20.3901 11.5334 19.9901L16.1334 15.3901C16.9334 14.5456 17.5556 13.6012 18 12.5568C18.4445 11.5123 18.6667 10.4123 18.6667 9.25675C18.6667 8.1012 18.4445 6.99009 18 5.92342C17.5556 4.85675 16.9334 3.92342 16.1334 3.12342ZM15.2667 14.5234L10.6667 19.1234C10.4889 19.3012 10.2667 19.3901 10 19.3901C9.73337 19.3901 9.48893 19.3012 9.26671 19.1234L4.66671 14.5234C3.9556 13.8123 3.42226 13.0012 3.06671 12.0901C2.71115 11.179 2.53337 10.2234 2.53337 9.22342C2.53337 8.22342 2.71115 7.26787 3.06671 6.35675C3.42226 5.44564 3.9556 4.64564 4.66671 3.95675C5.37782 3.26786 6.18893 2.73453 7.10004 2.35675C8.01115 1.97898 8.96671 1.79009 9.96671 1.79009C10.9667 1.79009 11.9223 1.97898 12.8334 2.35675C13.7445 2.73453 14.5556 3.25675 15.2667 3.92342C16.2445 4.9012 16.9 6.03453 17.2334 7.32342C17.5667 8.61231 17.5667 9.9012 17.2334 11.1901C16.9 12.479 16.2445 13.5901 15.2667 14.5234ZM10 6.12342C9.1556 6.12342 8.42226 6.43453 7.80004 7.05675C7.17782 7.67898 6.86671 8.41231 6.86671 9.25675C6.86671 10.1012 7.17782 10.8234 7.80004 11.4234C8.42226 12.0234 9.1556 12.3234 10 12.3234C10.8445 12.3234 11.5667 12.0234 12.1667 11.4234C12.7667 10.8234 13.0667 10.1012 13.0667 9.25675C13.0667 8.41231 12.7667 7.67898 12.1667 7.05675C11.5667 6.43453 10.8445 6.12342 10 6.12342ZM10 11.1901C9.46671 11.1901 9.01115 11.0012 8.63337 10.6234C8.2556 10.2456 8.06671 9.79009 8.06671 9.25675C8.06671 8.72342 8.2556 8.26787 8.63337 7.89009C9.01115 7.51231 9.46671 7.32342 10 7.32342C10.5334 7.32342 10.9889 7.51231 11.3667 7.89009C11.7445 8.26787 11.9334 8.72342 11.9334 9.25675C11.9334 9.79009 11.7445 10.2456 11.3667 10.6234C10.9889 11.0012 10.5334 11.1901 10 11.1901Z" fill="#1A1A1A"/>
</g>
<defs>
<clipPath id="clip0_2_544">
<rect width="20" height="20" fill="white" transform="matrix(1 0 0 -1 0 20.5901)"/>
</clipPath>
</defs>
</svg>
