<svg width="21" height="21" viewBox="0 0 21 21" fill="none" xmlns="http://www.w3.org/2000/svg">
<path d="M20.78 19.0867L15.8466 14.22C16.4689 13.4645 16.9578 12.6312 17.3133 11.72C17.6689 10.8089 17.8466 9.84227 17.8466 8.82004C17.8466 7.30893 17.4689 5.90893 16.7133 4.62004C15.9578 3.33115 14.9355 2.30893 13.6466 1.55338C12.3578 0.797821 10.9466 0.420042 9.41331 0.420042C7.87998 0.420042 6.46887 0.797821 5.17998 1.55338C3.89109 2.30893 2.86887 3.33115 2.11331 4.62004C1.35776 5.90893 0.97998 7.32004 0.97998 8.85338C0.97998 10.3867 1.35776 11.7978 2.11331 13.0867C2.86887 14.3756 3.89109 15.3978 5.17998 16.1534C6.46887 16.9089 7.86887 17.2867 9.37998 17.2867C10.4022 17.2867 11.3689 17.1089 12.28 16.7534C13.1911 16.3978 14.0244 15.9089 14.78 15.2867L19.6466 20.22C19.8244 20.3534 20.0133 20.42 20.2133 20.42C20.4133 20.42 20.5911 20.3423 20.7466 20.1867C20.9022 20.0312 20.98 19.8534 20.98 19.6534C20.98 19.4534 20.9133 19.2645 20.78 19.0867ZM2.51331 8.82004C2.51331 7.5756 2.82442 6.43115 3.44665 5.38671C4.06887 4.34227 4.9022 3.50893 5.94665 2.88671C6.99109 2.26449 8.13554 1.95338 9.37998 1.95338C10.6244 1.95338 11.7689 2.26449 12.8133 2.88671C13.8578 3.50893 14.6911 4.34227 15.3133 5.38671C15.9355 6.43115 16.2466 7.5756 16.2466 8.82004C16.2466 10.0645 15.9355 11.2089 15.3133 12.2534C14.6911 13.2978 13.8578 14.1312 12.8133 14.7534C11.7689 15.3756 10.6244 15.6867 9.37998 15.6867C8.13554 15.6867 6.99109 15.3756 5.94665 14.7534C4.9022 14.1312 4.06887 13.2978 3.44665 12.2534C2.82442 11.2089 2.51331 10.0645 2.51331 8.82004Z" fill="#1A1A1A"/>
</svg>
