<svg width="21" height="21" viewBox="0 0 21 21" fill="none" xmlns="http://www.w3.org/2000/svg">
<g clip-path="url(#clip0_2_553)">
<path d="M20.78 11.1033C20.78 10.6144 20.6134 10.2033 20.28 9.86997C19.9467 9.53663 19.5356 9.36997 19.0467 9.36997H3.91336V3.96997C3.91336 3.52552 4.06892 3.14775 4.38003 2.83663C4.60225 2.61441 4.85781 2.48108 5.1467 2.43663C5.43559 2.39219 5.73559 2.41441 6.0467 2.5033C5.6467 3.12552 5.49114 3.81441 5.58003 4.56997C5.66892 5.32552 5.98003 5.96997 6.51336 6.5033L6.6467 6.7033C6.78003 6.79219 6.92447 6.83663 7.08003 6.83663C7.23559 6.83663 7.35781 6.79219 7.4467 6.7033L11.2467 2.9033C11.38 2.76997 11.4467 2.62552 11.4467 2.46997C11.4467 2.31441 11.38 2.16997 11.2467 2.03663L11.1134 1.9033C10.5356 1.32552 9.83559 1.01441 9.01336 0.969967C8.19114 0.925524 7.46892 1.14775 6.8467 1.63663C6.31336 1.32552 5.73559 1.2033 5.11336 1.26997C4.49114 1.33663 3.95781 1.59219 3.51336 2.03663C2.98003 2.56997 2.71336 3.21441 2.71336 3.96997V9.36997H2.51336C2.02447 9.36997 1.61336 9.53663 1.28003 9.86997C0.946696 10.2033 0.780029 10.6144 0.780029 11.1033C0.780029 11.5033 0.89114 11.8477 1.11336 12.1366C1.33558 12.4255 1.60225 12.6366 1.91336 12.77V14.0366C1.91336 15.1033 2.20225 16.0811 2.78003 16.97C3.35781 17.8589 4.09114 18.5477 4.98003 19.0366L4.4467 20.1033C4.35781 20.2811 4.3467 20.4366 4.41336 20.57C4.48003 20.7033 4.58003 20.8144 4.71336 20.9033C4.8467 20.9922 4.99114 21.0033 5.1467 20.9366C5.30225 20.87 5.42447 20.77 5.51336 20.6366L6.11336 19.4366C6.55781 19.5255 7.02447 19.57 7.51336 19.57H14.0467C14.5356 19.57 15.0023 19.5255 15.4467 19.4366L16.0467 20.6366C16.1356 20.77 16.2578 20.87 16.4134 20.9366C16.5689 21.0033 16.7134 20.9922 16.8467 20.9033C16.98 20.8144 17.08 20.7033 17.1467 20.57C17.2134 20.4366 17.2023 20.2811 17.1134 20.1033L16.58 19.0366C17.4689 18.5477 18.2023 17.8589 18.78 16.97C19.3578 16.0811 19.6467 15.1033 19.6467 14.0366V12.77C19.9578 12.6366 20.2245 12.4255 20.4467 12.1366C20.6689 11.8477 20.78 11.5033 20.78 11.1033ZM9.98003 2.5033L7.11336 5.43663C6.80225 4.99219 6.66892 4.52552 6.71336 4.03663C6.75781 3.54774 6.95781 3.12552 7.31336 2.76997C7.66892 2.41441 8.10225 2.21441 8.61336 2.16997C9.12447 2.12552 9.58003 2.23664 9.98003 2.5033ZM2.51336 10.57H19.0467C19.18 10.57 19.3023 10.6255 19.4134 10.7366C19.5245 10.8477 19.58 10.9811 19.58 11.1366C19.58 11.2922 19.5245 11.4255 19.4134 11.5366C19.3023 11.6477 19.18 11.7033 19.0467 11.7033H2.51336C2.38003 11.7033 2.25781 11.6477 2.1467 11.5366C2.03558 11.4255 1.98003 11.2922 1.98003 11.1366C1.98003 10.9811 2.03558 10.8477 2.1467 10.7366C2.25781 10.6255 2.38003 10.57 2.51336 10.57ZM18.4467 14.0366C18.4467 14.8366 18.2467 15.57 17.8467 16.2366C17.4467 16.9033 16.9134 17.4366 16.2467 17.8366C15.58 18.2366 14.8467 18.4366 14.0467 18.4366H7.51336C6.71336 18.4366 5.98003 18.2366 5.31336 17.8366C4.6467 17.4366 4.11336 16.9033 3.71336 16.2366C3.31336 15.57 3.11336 14.8366 3.11336 14.0366V12.9033H18.4467V14.0366ZM9.2467 6.9033C9.2467 7.08108 9.30225 7.22552 9.41336 7.33663C9.52447 7.44775 9.65781 7.5033 9.81336 7.5033C9.96892 7.5033 10.1023 7.44775 10.2134 7.33663C10.3245 7.22552 10.38 7.08108 10.38 6.9033C10.38 6.72552 10.3245 6.58108 10.2134 6.46997C10.1023 6.35886 9.96892 6.3033 9.81336 6.3033C9.65781 6.3033 9.52447 6.35886 9.41336 6.46997C9.30225 6.58108 9.2467 6.72552 9.2467 6.9033ZM10.9134 5.23663C10.9134 5.41441 10.9689 5.55886 11.08 5.66997C11.1911 5.78108 11.3245 5.83663 11.48 5.83663C11.6356 5.83663 11.7689 5.78108 11.88 5.66997C11.9911 5.55886 12.0467 5.41441 12.0467 5.23663C12.0467 5.05886 11.9911 4.91441 11.88 4.8033C11.7689 4.69219 11.6356 4.63663 11.48 4.63663C11.3245 4.63663 11.1911 4.69219 11.08 4.8033C10.9689 4.91441 10.9134 5.05886 10.9134 5.23663ZM11.3134 7.3033C11.3134 7.43664 11.3689 7.56997 11.48 7.7033C11.5911 7.83663 11.7245 7.9033 11.88 7.9033C12.0356 7.9033 12.1689 7.83663 12.28 7.7033C12.3911 7.56997 12.4467 7.42552 12.4467 7.26997C12.4467 7.11441 12.3911 6.98108 12.28 6.86997C12.1689 6.75886 12.0356 6.7033 11.88 6.7033C11.7245 6.7033 11.5911 6.75886 11.48 6.86997C11.3689 6.98108 11.3134 7.12552 11.3134 7.3033Z" fill="#1A1A1A"/>
</g>
<defs>
<clipPath id="clip0_2_553">
<rect width="20" height="20" fill="white" transform="matrix(1 0 0 -1 0.780029 20.97)"/>
</clipPath>
</defs>
</svg>
