<svg width="21" height="21" viewBox="0 0 21 21" fill="none" xmlns="http://www.w3.org/2000/svg">
<g clip-path="url(#clip0_2_40)">
<path d="M16.3867 19.78H13.9867C13.8534 19.78 13.72 19.8466 13.5867 19.98C13.4534 20.1133 13.3867 20.2578 13.3867 20.4133C13.3867 20.5689 13.4534 20.7022 13.5867 20.8133C13.72 20.9244 13.8534 20.98 13.9867 20.98H16.3867C16.5645 20.98 16.7089 20.9244 16.82 20.8133C16.9311 20.7022 16.9867 20.5689 16.9867 20.4133C16.9867 20.2578 16.9311 20.1133 16.82 19.98C16.7089 19.8466 16.5645 19.78 16.3867 19.78ZM11.6534 19.78H9.32002C9.14224 19.78 8.9978 19.8466 8.88669 19.98C8.77558 20.1133 8.72002 20.2578 8.72002 20.4133C8.72002 20.5689 8.77558 20.7022 8.88669 20.8133C8.9978 20.9244 9.14224 20.98 9.32002 20.98H11.6534C11.8311 20.98 11.9756 20.9244 12.0867 20.8133C12.1978 20.7022 12.2534 20.5689 12.2534 20.4133C12.2534 20.2578 12.1978 20.1133 12.0867 19.98C11.9756 19.8466 11.8311 19.78 11.6534 19.78ZM19.92 9.17998C19.7867 9.17998 19.6534 9.23554 19.52 9.34665C19.3867 9.45776 19.32 9.6022 19.32 9.77998V12.1133C19.32 12.2911 19.3867 12.4355 19.52 12.5466C19.6534 12.6578 19.7978 12.7133 19.9534 12.7133C20.1089 12.7133 20.2422 12.6578 20.3534 12.5466C20.4645 12.4355 20.52 12.2911 20.52 12.1133V9.77998C20.52 9.6022 20.4645 9.45776 20.3534 9.34665C20.2422 9.23554 20.0978 9.17998 19.92 9.17998ZM19.92 13.8466C19.7867 13.8466 19.6534 13.9133 19.52 14.0466C19.3867 14.18 19.32 14.3133 19.32 14.4466V16.78C19.32 16.9578 19.3867 17.1022 19.52 17.2133C19.6534 17.3244 19.7978 17.38 19.9534 17.38C20.1089 17.38 20.2422 17.3244 20.3534 17.2133C20.4645 17.1022 20.52 16.9578 20.52 16.78V14.4466C20.52 14.3133 20.4645 14.18 20.3534 14.0466C20.2422 13.9133 20.0978 13.8466 19.92 13.8466ZM6.98669 19.78H6.38669V19.2466C6.38669 19.0689 6.33113 18.9244 6.22002 18.8133C6.10891 18.7022 5.96446 18.6466 5.78669 18.6466C5.60891 18.6466 5.46446 18.7022 5.35335 18.8133C5.24224 18.9244 5.18669 19.0689 5.18669 19.2466V20.38C5.18669 20.5578 5.24224 20.7022 5.35335 20.8133C5.46446 20.9244 5.60891 20.98 5.78669 20.98H6.98669C7.12002 20.98 7.24224 20.9244 7.35335 20.8133C7.46446 20.7022 7.52002 20.5689 7.52002 20.4133C7.52002 20.2578 7.46446 20.1133 7.35335 19.98C7.24224 19.8466 7.12002 19.78 6.98669 19.78ZM19.92 5.64665H18.7867C18.6089 5.64665 18.4645 5.7022 18.3534 5.81331C18.2422 5.92442 18.1867 6.06887 18.1867 6.24665C18.1867 6.42442 18.2422 6.56887 18.3534 6.67998C18.4645 6.79109 18.6089 6.84665 18.7867 6.84665H19.32V7.44665C19.32 7.57998 19.3867 7.7022 19.52 7.81331C19.6534 7.92442 19.7978 7.97998 19.9534 7.97998C20.1089 7.97998 20.2422 7.92442 20.3534 7.81331C20.4645 7.7022 20.52 7.57998 20.52 7.44665V6.24665C20.52 6.06887 20.4645 5.92442 20.3534 5.81331C20.2422 5.7022 20.0978 5.64665 19.92 5.64665ZM19.92 18.6466C19.7867 18.6466 19.6534 18.7022 19.52 18.8133C19.3867 18.9244 19.32 19.0689 19.32 19.2466V19.78H18.7867C18.6089 19.78 18.4645 19.8466 18.3534 19.98C18.2422 20.1133 18.1867 20.2578 18.1867 20.4133C18.1867 20.5689 18.2422 20.7022 18.3534 20.8133C18.4645 20.9244 18.6089 20.98 18.7867 20.98H19.92C20.0978 20.98 20.2422 20.9244 20.3534 20.8133C20.4645 20.7022 20.52 20.5578 20.52 20.38V19.2466C20.52 19.0689 20.4645 18.9244 20.3534 18.8133C20.2422 18.7022 20.0978 18.6466 19.92 18.6466ZM16.3867 5.64665H15.7867V1.57998C15.7867 1.4022 15.72 1.25776 15.5867 1.14665C15.4534 1.03554 15.32 0.979979 15.1867 0.979979H1.12002C0.942242 0.979979 0.797797 1.03554 0.686686 1.14665C0.575575 1.25776 0.52002 1.4022 0.52002 1.57998V15.6466C0.52002 15.78 0.575575 15.9133 0.686686 16.0466C0.797797 16.18 0.942242 16.2466 1.12002 16.2466H5.18669V16.78C5.18669 16.9578 5.24224 17.1022 5.35335 17.2133C5.46446 17.3244 5.60891 17.38 5.78669 17.38C5.96446 17.38 6.10891 17.3244 6.22002 17.2133C6.33113 17.1022 6.38669 16.9578 6.38669 16.78V6.84665H16.3867C16.5645 6.84665 16.7089 6.79109 16.82 6.67998C16.9311 6.56887 16.9867 6.42442 16.9867 6.24665C16.9867 6.06887 16.9311 5.92442 16.82 5.81331C16.7089 5.7022 16.5645 5.64665 16.3867 5.64665ZM14.5867 5.64665H5.78669C5.60891 5.64665 5.46446 5.7022 5.35335 5.81331C5.24224 5.92442 5.18669 6.06887 5.18669 6.24665V15.0466H1.72002V2.17998H14.5867V5.64665Z" fill="#1A1A1A"/>
</g>
<defs>
<clipPath id="clip0_2_40">
<rect width="20" height="20" fill="white" transform="matrix(1 0 0 -1 0.52002 20.98)"/>
</clipPath>
</defs>
</svg>
