<svg width="52" height="52" viewBox="0 0 52 52" fill="none" xmlns="http://www.w3.org/2000/svg">
<rect x="0.47998" y="0.359863" width="51" height="51" rx="25.5" fill="white"/>
<g clip-path="url(#clip0_2_176)">
<path d="M19.3574 25.7881H31.3681L26.769 21.4089C26.5282 21.1796 26.5188 20.7986 26.7482 20.5578C26.9773 20.3174 27.3584 20.3077 27.5995 20.5371L32.8519 25.5386C33.0791 25.7661 33.2046 26.0683 33.2046 26.39C33.2046 26.7114 33.0791 27.0138 32.8413 27.2513L27.5992 32.2427C27.4827 32.3536 27.3334 32.4087 27.1841 32.4087C27.0252 32.4087 26.8662 32.3461 26.7479 32.2219C26.5185 31.9812 26.5279 31.6004 26.7687 31.3711L31.387 26.9919H19.3574C19.0251 26.9919 18.7554 26.7222 18.7554 26.39C18.7554 26.0578 19.0251 25.7881 19.3574 25.7881Z" fill="#1A1A1A"/>
</g>
<defs>
<clipPath id="clip0_2_176">
<rect width="15" height="12.84" fill="white" transform="translate(18.48 19.9697)"/>
</clipPath>
</defs>
</svg>
