<svg width="40" height="39" viewBox="0 0 40 39" fill="none" xmlns="http://www.w3.org/2000/svg">
<path d="M10.0688 38.9404C7.03235 38.9404 4.66008 37.8928 2.95205 35.7975C1.24403 33.6071 0.390015 30.369 0.390015 26.0833C0.390015 21.6071 1.38636 17.3214 3.37906 13.2261C5.46665 9.13091 8.40826 5.08329 12.2039 1.08329C12.2988 0.988051 12.4411 0.94043 12.6309 0.94043C12.9155 0.94043 13.1053 1.08329 13.2002 1.369C13.39 1.55948 13.4374 1.79757 13.3426 2.08329C11.0652 5.13091 9.4995 8.08329 8.64549 10.9404C7.88636 13.7023 7.5068 16.7975 7.5068 20.2261C7.5068 22.7975 7.83892 24.7975 8.50315 26.2261C9.16738 27.6547 10.0688 28.9404 11.2075 30.0833L5.79877 31.0833C5.70388 29.4642 6.13089 28.2261 7.07979 27.369C8.12359 26.5118 9.45207 26.0833 11.0652 26.0833C13.0579 26.0833 14.5761 26.6547 15.6199 27.7975C16.7586 28.9404 17.328 30.5118 17.328 32.5118C17.328 34.6071 16.6637 36.2261 15.3353 37.369C14.1017 38.4166 12.3462 38.9404 10.0688 38.9404ZM31.9885 38.9404C28.952 38.9404 26.5798 37.8928 24.8718 35.7975C23.2586 33.6071 22.452 30.369 22.452 26.0833C22.452 21.5118 23.4484 17.1785 25.4411 13.0833C27.4338 8.98805 30.3754 4.98805 34.2659 1.08329C34.3608 0.988051 34.5031 0.94043 34.6929 0.94043C34.9776 0.94043 35.1674 1.08329 35.2623 1.369C35.452 1.55948 35.4995 1.79757 35.4046 2.08329C33.1272 5.13091 31.5615 8.08329 30.7075 10.9404C29.9484 13.7023 29.5688 16.7975 29.5688 20.2261C29.5688 22.7975 29.8535 24.8452 30.4228 26.369C31.0871 27.7975 31.9885 29.0356 33.1272 30.0833L27.8608 31.0833C27.7659 29.4642 28.1929 28.2261 29.1418 27.369C30.0907 26.5118 31.4192 26.0833 33.1272 26.0833C35.1199 26.0833 36.6382 26.6547 37.682 27.7975C38.8207 28.9404 39.39 30.5118 39.39 32.5118C39.39 34.6071 38.7258 36.2261 37.3973 37.369C36.1637 38.4166 34.3608 38.9404 31.9885 38.9404Z" fill="#1A1A1A"/>
</svg>
