<svg width="20" height="21" viewBox="0 0 20 21" fill="none" xmlns="http://www.w3.org/2000/svg">
<g clip-path="url(#clip0_2_29)">
<path d="M16.1333 3.39332C15.2889 2.59332 14.3444 1.9711 13.3 1.52665C12.2555 1.08221 11.1555 0.859983 9.99998 0.859983C8.84442 0.859983 7.73331 1.08221 6.66665 1.52665C5.59998 1.9711 4.66665 2.59332 3.86665 3.39332C3.06665 4.19332 2.44442 5.12665 1.99998 6.19332C1.55554 7.25998 1.33331 8.3711 1.33331 9.52665C1.33331 10.6822 1.55554 11.7822 1.99998 12.8267C2.44442 13.8711 3.06665 14.8155 3.86665 15.66L8.46665 20.26C8.86665 20.66 9.36665 20.86 9.96665 20.86C10.5666 20.86 11.0889 20.66 11.5333 20.26L16.1333 15.66C16.9333 14.8155 17.5555 13.8711 18 12.8267C18.4444 11.7822 18.6666 10.6822 18.6666 9.52665C18.6666 8.3711 18.4444 7.25998 18 6.19332C17.5555 5.12665 16.9333 4.19332 16.1333 3.39332ZM15.2666 14.7933L10.6666 19.3933C10.4889 19.5711 10.2666 19.66 9.99998 19.66C9.73331 19.66 9.48887 19.5711 9.26665 19.3933L4.66665 14.7933C3.95554 14.0822 3.4222 13.2711 3.06665 12.36C2.71109 11.4489 2.53331 10.4933 2.53331 9.49332C2.53331 8.49332 2.71109 7.53776 3.06665 6.62665C3.4222 5.71554 3.95554 4.91554 4.66665 4.22665C5.37776 3.53776 6.18887 3.00443 7.09998 2.62665C8.01109 2.24887 8.96665 2.05998 9.96665 2.05998C10.9666 2.05998 11.9222 2.24887 12.8333 2.62665C13.7444 3.00443 14.5555 3.52665 15.2666 4.19332C16.2444 5.1711 16.9 6.30443 17.2333 7.59332C17.5666 8.88221 17.5666 10.1711 17.2333 11.46C16.9 12.7489 16.2444 13.86 15.2666 14.7933ZM9.99998 6.39332C9.15554 6.39332 8.4222 6.70443 7.79998 7.32665C7.17776 7.94887 6.86665 8.68221 6.86665 9.52665C6.86665 10.3711 7.17776 11.0933 7.79998 11.6933C8.4222 12.2933 9.15554 12.5933 9.99998 12.5933C10.8444 12.5933 11.5666 12.2933 12.1666 11.6933C12.7666 11.0933 13.0666 10.3711 13.0666 9.52665C13.0666 8.68221 12.7666 7.94887 12.1666 7.32665C11.5666 6.70443 10.8444 6.39332 9.99998 6.39332ZM9.99998 11.46C9.46665 11.46 9.01109 11.2711 8.63331 10.8933C8.25554 10.5155 8.06665 10.06 8.06665 9.52665C8.06665 8.99332 8.25554 8.53776 8.63331 8.15998C9.01109 7.78221 9.46665 7.59332 9.99998 7.59332C10.5333 7.59332 10.9889 7.78221 11.3666 8.15998C11.7444 8.53776 11.9333 8.99332 11.9333 9.52665C11.9333 10.06 11.7444 10.5155 11.3666 10.8933C10.9889 11.2711 10.5333 11.46 9.99998 11.46Z" fill="#1A1A1A"/>
</g>
<defs>
<clipPath id="clip0_2_29">
<rect width="20" height="20" fill="white" transform="matrix(1 0 0 -1 0 20.86)"/>
</clipPath>
</defs>
</svg>
