<svg width="51" height="51" viewBox="0 0 51 51" fill="none" xmlns="http://www.w3.org/2000/svg">
<g clip-path="url(#clip0_2_150)">
<path d="M49.24 21.0801L31.74 8.58008C31.2955 8.24674 30.7955 8.08008 30.24 8.08008C29.6844 8.08008 29.1844 8.24674 28.74 8.58008L17.9067 16.4134C18.5733 16.8579 19.1289 17.469 19.5733 18.2467L30.24 10.5801L47.74 23.0801H42.74V45.5801H17.9067L17.74 48.0801H42.74C43.4067 48.0801 43.99 47.8301 44.49 47.3301C44.99 46.8301 45.24 46.2467 45.24 45.5801V25.5801H47.74C48.2955 25.5801 48.7955 25.4134 49.24 25.0801C49.6844 24.7467 49.99 24.3301 50.1567 23.8301C50.3233 23.3301 50.3233 22.8301 50.1567 22.3301C49.99 21.8301 49.6844 21.4134 49.24 21.0801ZM20.24 33.9134L17.74 20.0801C17.6289 19.5245 17.3233 19.0523 16.8233 18.6634C16.3233 18.2745 15.7955 18.0801 15.24 18.0801H5.23999C4.68443 18.0801 4.15666 18.2745 3.65666 18.6634C3.15666 19.0523 2.8511 19.5245 2.73999 20.0801L0.239989 33.9134C0.128878 34.6912 0.323323 35.3579 0.823323 35.9134C1.32332 36.469 1.96221 36.7467 2.73999 36.7467H4.40666L5.23999 48.2467C5.3511 48.9134 5.62888 49.469 6.07332 49.9134C6.51777 50.3579 7.07332 50.5801 7.73999 50.5801H12.74C13.4067 50.5801 13.9622 50.3579 14.4067 49.9134C14.8511 49.469 15.1289 48.9134 15.24 48.2467L16.0733 36.7467H17.74C18.5178 36.7467 19.1567 36.469 19.6567 35.9134C20.1567 35.3579 20.3511 34.6912 20.24 33.9134ZM13.9067 34.2467L12.74 48.0801H7.73999L6.57332 34.2467H2.73999L5.23999 20.5801H8.90666V28.2467C8.90666 28.5801 9.04555 28.8579 9.32332 29.0801C9.6011 29.3023 9.90666 29.4134 10.24 29.4134C10.5733 29.4134 10.8511 29.3023 11.0733 29.0801C11.2955 28.8579 11.4067 28.5801 11.4067 28.2467V20.5801H15.24L17.74 34.2467H13.9067ZM10.24 0.580078C8.12888 0.580078 6.3511 1.3023 4.90666 2.74674C3.46221 4.19119 2.73999 5.96897 2.73999 8.08008C2.73999 10.1912 3.46221 11.969 4.90666 13.4134C6.3511 14.8579 8.12888 15.5801 10.24 15.5801C12.3511 15.5801 14.1289 14.8579 15.5733 13.4134C17.0178 11.969 17.74 10.1912 17.74 8.08008C17.74 5.96897 17.0178 4.19119 15.5733 2.74674C14.1289 1.3023 12.3511 0.580078 10.24 0.580078ZM10.24 13.0801C8.90666 13.0801 7.73999 12.5801 6.73999 11.5801C5.73999 10.5801 5.23999 9.41341 5.23999 8.08008C5.23999 6.74674 5.73999 5.58008 6.73999 4.58008C7.73999 3.58008 8.90666 3.08008 10.24 3.08008C11.5733 3.08008 12.74 3.58008 13.74 4.58008C14.74 5.58008 15.24 6.74674 15.24 8.08008C15.24 9.41341 14.74 10.5801 13.74 11.5801C12.74 12.5801 11.5733 13.0801 10.24 13.0801Z" fill="#1A1A1A"/>
</g>
<defs>
<clipPath id="clip0_2_150">
<rect width="50.02" height="50" fill="white" transform="matrix(1 0 0 -1 0.22998 50.5801)"/>
</clipPath>
</defs>
</svg>
