<svg width="61" height="61" viewBox="0 0 61 61" fill="none" xmlns="http://www.w3.org/2000/svg">
<path d="M18.79 43.8899C18.79 43.3566 18.99 42.8899 19.39 42.4899C19.79 42.0899 20.19 41.8899 20.59 41.8899H41.39C41.79 41.8899 42.19 42.0899 42.59 42.4899C42.99 42.8899 43.19 43.3566 43.19 43.8899C43.19 44.4232 42.99 44.8566 42.59 45.1899C42.19 45.5232 41.79 45.6899 41.39 45.6899H20.59C20.19 45.6899 19.79 45.5232 19.39 45.1899C18.99 44.8566 18.79 44.4232 18.79 43.8899ZM38.99 5.28989C36.7234 3.42323 34.0567 2.48989 30.99 2.48989C27.9234 2.48989 25.2567 3.42323 22.99 5.28989L7.99004 16.8899C6.39004 18.2232 5.12337 19.7566 4.19004 21.4899C3.25671 23.2232 2.79004 25.0899 2.79004 27.0899V45.8899C2.79004 48.1566 3.39004 50.2899 4.59004 52.2899C5.79004 54.2899 7.39004 55.8899 9.39004 57.0899C11.39 58.2899 13.59 58.8899 15.99 58.8899H45.99C48.39 58.8899 50.59 58.2899 52.59 57.0899C54.59 55.8899 56.19 54.2899 57.39 52.2899C58.59 50.2899 59.19 48.1566 59.19 45.8899V27.0899C59.19 25.0899 58.7234 23.2232 57.79 21.4899C56.8567 19.7566 55.59 18.2232 53.99 16.8899L38.99 5.28989ZM25.19 8.28989C26.9234 6.95656 28.8567 6.28989 30.99 6.28989C33.1234 6.28989 35.0567 6.95656 36.79 8.28989L51.79 19.8899C52.8567 20.8232 53.7234 21.9232 54.39 23.1899C55.0567 24.4566 55.39 25.7566 55.39 27.0899V45.8899C55.39 48.4232 54.4567 50.5899 52.59 52.3899C50.7234 54.1899 48.5234 55.0899 45.99 55.0899H15.99C13.4567 55.0899 11.2567 54.1899 9.39004 52.3899C7.52337 50.5899 6.59004 48.4232 6.59004 45.8899V27.0899C6.59004 25.7566 6.92337 24.4566 7.59004 23.1899C8.25671 21.9232 9.12337 20.8232 10.19 19.8899L25.19 8.28989Z" fill="#1A1A1A"/>
</svg>
