<svg width="61" height="61" viewBox="0 0 61 61" fill="none" xmlns="http://www.w3.org/2000/svg">
<path d="M30.3201 57.09C29.5201 57.09 28.7868 56.89 28.1201 56.49L19.3201 51.29C15.5868 49.1566 12.5535 46.2233 10.2201 42.49C7.88679 38.7566 6.52013 34.7566 6.12013 30.49L4.92013 15.49C4.78679 14.4233 4.98679 13.4566 5.52013 12.59C6.05346 11.7233 6.78679 11.1566 7.72013 10.89C9.18679 10.49 10.5201 9.88997 11.7201 9.08997C13.1868 8.15663 14.5201 6.95663 15.7201 5.48996C16.5201 4.4233 17.6535 3.88997 19.1201 3.88997H41.5201C42.9868 3.88997 44.1201 4.4233 44.9201 5.48996C46.1201 6.95663 47.4535 8.15663 48.9201 9.08997C50.1201 9.88997 51.4535 10.49 52.9201 10.89C53.8535 11.1566 54.5868 11.7233 55.1201 12.59C55.6535 13.4566 55.9201 14.3566 55.9201 15.29L54.5201 30.29C54.2535 34.69 52.9535 38.7233 50.6201 42.39C48.2868 46.0566 45.2535 49.0233 41.5201 51.29L32.7201 56.49C31.9201 56.89 31.1201 57.09 30.3201 57.09ZM19.1201 7.48996C18.8535 7.48996 18.6535 7.55663 18.5201 7.68996C17.1868 9.4233 15.6535 10.9566 13.9201 12.29C12.4535 13.2233 10.8535 13.89 9.12013 14.29C8.72013 14.4233 8.52013 14.69 8.52013 15.09L9.92013 30.09C10.1868 33.8233 11.3201 37.29 13.3201 40.49C15.3201 43.69 17.9201 46.2233 21.1201 48.09L29.9201 53.29C30.1868 53.4233 30.4535 53.4233 30.7201 53.29L39.5201 48.09C42.7201 46.2233 45.3201 43.7233 47.3201 40.59C49.3201 37.4566 50.4535 33.9566 50.7201 30.09L52.1201 15.09C52.1201 14.8233 51.9201 14.6233 51.5201 14.49C49.7868 14.09 48.1868 13.3566 46.7201 12.29C44.9868 11.09 43.4535 9.6233 42.1201 7.88997C41.9868 7.75663 41.7868 7.68996 41.5201 7.68996L19.1201 7.48996ZM28.5201 36.29C27.9868 36.29 27.5201 36.09 27.1201 35.69L22.1201 30.69C21.8535 30.4233 21.7535 30.0566 21.8201 29.59C21.8868 29.1233 22.0868 28.7233 22.4201 28.39C22.7535 28.0566 23.1201 27.8566 23.5201 27.79C23.9201 27.7233 24.3201 27.8233 24.7201 28.09L28.5201 31.89L37.1201 23.09C37.5201 22.9566 37.9201 22.89 38.3201 22.89C38.7201 22.89 39.0868 23.0566 39.4201 23.39C39.7535 23.7233 39.9535 24.09 40.0201 24.49C40.0868 24.89 39.9868 25.29 39.7201 25.69L29.7201 35.69C29.4535 36.09 29.0535 36.29 28.5201 36.29Z" fill="#1A1A1A"/>
</svg>
