<svg width="61" height="61" viewBox="0 0 61 61" fill="none" xmlns="http://www.w3.org/2000/svg">
<g clip-path="url(#clip0_2_516)">
<path d="M59.6602 44.0899L57.8605 42.4899V35.4899C57.8605 34.2899 57.4272 33.2566 56.5607 32.3899C55.6942 31.5233 54.6943 31.0899 53.5612 31.0899C52.4281 31.0899 51.4615 31.4233 50.6617 32.0899C49.8618 32.7566 49.3286 33.6232 49.0619 34.6899L47.4622 33.2899C46.6623 32.4899 45.6625 32.0899 44.4627 32.0899C43.2629 32.0899 42.1964 32.4899 41.2632 33.2899L29.0653 44.0899C28.7987 44.3566 28.6653 44.6899 28.6653 45.0899C28.6653 45.4899 28.7653 45.8232 28.9653 46.0899C29.1653 46.3566 29.4652 46.4899 29.8651 46.4899C30.2651 46.4899 30.5984 46.4233 30.865 46.2899V56.0899C30.865 57.2899 31.2649 58.2899 32.0648 59.0899C32.8646 59.8899 33.7978 60.2899 34.8643 60.2899H53.8611C55.0609 60.2899 56.0275 59.8899 56.7607 59.0899C57.4939 58.2899 57.8605 57.2899 57.8605 56.0899V46.2899C58.2604 46.4233 58.627 46.4899 58.9603 46.4899C59.2936 46.4899 59.5935 46.3232 59.8601 45.9899C60.1268 45.6566 60.2268 45.3232 60.1601 44.9899C60.0934 44.6566 59.9268 44.3566 59.6602 44.0899ZM46.8623 57.4899H42.2631V54.0899C42.2631 53.5566 42.463 53.0899 42.863 52.6899C43.2629 52.2899 43.7295 52.0899 44.2627 52.0899H44.8626C45.3959 52.0899 45.8625 52.2899 46.2624 52.6899C46.6623 53.0899 46.8623 53.5566 46.8623 54.0899V57.4899ZM55.0609 56.0899C55.0609 56.4899 54.961 56.8233 54.761 57.0899C54.561 57.3566 54.2611 57.4899 53.8611 57.4899H49.6618V54.0899C49.6618 52.7566 49.1953 51.6233 48.2621 50.6899C47.3289 49.7566 46.1958 49.2899 44.8626 49.2899H44.2627C42.9296 49.2899 41.7965 49.7566 40.8633 50.6899C39.9301 51.6233 39.4635 52.7566 39.4635 54.0899V57.4899H34.8643C34.5977 57.4899 34.3311 57.3566 34.0644 57.0899C33.7978 56.8233 33.6645 56.4899 33.6645 56.0899V43.6899L43.0629 35.4899C43.4629 35.0899 43.8961 34.8899 44.3627 34.8899C44.8293 34.8899 45.2626 35.0899 45.6625 35.4899L55.0609 43.6899V56.0899ZM55.0609 35.4899V40.0899L51.8615 37.0899V35.4899C51.8615 35.0899 51.9948 34.7232 52.2614 34.3899C52.528 34.0566 52.8946 33.8566 53.3612 33.7899C53.8278 33.7232 54.2278 33.8566 54.561 34.1899C54.8943 34.5233 55.0609 34.9566 55.0609 35.4899ZM44.4627 38.2899C43.2629 38.2899 42.2631 38.7232 41.4632 39.5899C40.6633 40.4566 40.2634 41.4566 40.2634 42.5899C40.2634 43.7232 40.6633 44.6899 41.4632 45.4899C42.2631 46.2899 43.2296 46.6899 44.3627 46.6899C45.4959 46.6899 46.4957 46.2899 47.3622 45.4899C48.2288 44.6899 48.662 43.7232 48.662 42.5899C48.662 41.4566 48.2288 40.4566 47.3622 39.5899C46.4957 38.7232 45.5292 38.2899 44.4627 38.2899ZM45.6625 42.4899C45.6625 42.8899 45.5625 43.2232 45.3626 43.4899C45.1626 43.7566 44.8626 43.8899 44.4627 43.8899C44.0628 43.8899 43.7295 43.7566 43.4629 43.4899C43.1963 43.2232 43.0629 42.8899 43.0629 42.4899C43.0629 42.0899 43.1963 41.7566 43.4629 41.4899C43.7295 41.2232 44.0628 41.0899 44.4627 41.0899C44.8626 41.0899 45.1626 41.2232 45.3626 41.4899C45.5625 41.7566 45.6625 42.0899 45.6625 42.4899ZM26.2657 57.2899H8.46871C7.26891 57.2899 6.20242 56.8566 5.26925 55.9899C4.33607 55.1233 3.86948 54.0899 3.86948 52.8899V8.48992C3.86948 7.28992 4.33607 6.22325 5.26925 5.28992C6.20242 4.35658 7.26891 3.88992 8.46871 3.88992H49.0619C50.3951 3.88992 51.4949 4.35658 52.3614 5.28992C53.2279 6.22325 53.6612 7.28992 53.6612 8.48992V26.2899C53.6612 26.6899 53.7945 27.0233 54.0611 27.2899C54.3277 27.5566 54.661 27.6899 55.0609 27.6899C55.4609 27.6899 55.7942 27.5566 56.0608 27.2899C56.3274 27.0233 56.4607 26.6899 56.4607 26.2899V8.48992C56.4607 6.48992 55.7275 4.75658 54.2611 3.28992C52.7947 1.82325 51.0616 1.08992 49.0619 1.08992H8.46871C6.46905 1.08992 4.736 1.82325 3.26958 3.28992C1.80316 4.75658 1.06995 6.48992 1.06995 8.48992V52.8899C1.06995 54.8899 1.80316 56.6233 3.26958 58.0899C4.736 59.5566 6.46905 60.2899 8.46871 60.2899H26.2657C26.6657 60.2899 27.0323 60.1233 27.3656 59.7899C27.6988 59.4566 27.8655 59.1233 27.8655 58.7899C27.8655 58.4566 27.6988 58.1233 27.3656 57.7899C27.0323 57.4566 26.6657 57.2899 26.2657 57.2899ZM43.6628 15.2899C43.6628 14.8899 43.5295 14.5566 43.2629 14.2899C42.9963 14.0233 42.663 13.8899 42.2631 13.8899H14.4677C14.0678 13.8899 13.7345 14.0233 13.4679 14.2899C13.2013 14.5566 13.0679 14.8899 13.0679 15.2899C13.0679 15.6899 13.2013 16.0233 13.4679 16.2899C13.7345 16.5566 14.0678 16.6899 14.4677 16.6899H42.2631C42.663 16.6899 42.9963 16.5566 43.2629 16.2899C43.5295 16.0233 43.6628 15.6899 43.6628 15.2899ZM36.864 26.0899C36.864 25.8232 36.7307 25.5233 36.464 25.1899C36.1974 24.8566 35.8641 24.6899 35.4642 24.6899H14.4677C14.0678 24.6899 13.7345 24.8566 13.4679 25.1899C13.2013 25.5233 13.0679 25.8566 13.0679 26.1899C13.0679 26.5233 13.2013 26.8566 13.4679 27.1899C13.7345 27.5233 14.0678 27.6899 14.4677 27.6899H35.4642C35.8641 27.6899 36.1974 27.5233 36.464 27.1899C36.7307 26.8566 36.864 26.4899 36.864 26.0899ZM14.4677 35.6899C14.0678 35.6899 13.7345 35.8232 13.4679 36.0899C13.2013 36.3566 13.0679 36.6899 13.0679 37.0899C13.0679 37.4899 13.2013 37.8232 13.4679 38.0899C13.7345 38.3566 14.0678 38.4899 14.4677 38.4899H23.0663C23.3329 38.4899 23.6329 38.3566 23.9661 38.0899C24.2994 37.8232 24.466 37.4899 24.466 37.0899C24.466 36.6899 24.2994 36.3566 23.9661 36.0899C23.6329 35.8232 23.3329 35.6899 23.0663 35.6899H14.4677Z" fill="#1A1A1A"/>
</g>
<defs>
<clipPath id="clip0_2_516">
<rect width="60.01" height="60" fill="white" transform="matrix(1 0 0 -1 0.659912 60.6899)"/>
</clipPath>
</defs>
</svg>
