<svg width="18" height="18" viewBox="0 0 18 18" fill="none" xmlns="http://www.w3.org/2000/svg">
<path d="M2.51995 9.97003C2.39995 9.97003 2.30995 10 2.24995 10.06C2.18995 10.12 2.15995 10.21 2.15995 10.33V17.11C2.15995 17.23 2.18995 17.33 2.24995 17.41C2.30995 17.49 2.39995 17.53 2.51995 17.53H16.02C16.1 17.53 16.18 17.49 16.26 17.41C16.34 17.33 16.38 17.23 16.38 17.11V11.59C16.38 11.47 16.34 11.38 16.26 11.32C16.18 11.26 16.09 11.23 15.99 11.23C15.89 11.23 15.81 11.26 15.75 11.32C15.69 11.38 15.66 11.47 15.66 11.59V16.75H2.87995V10.33C2.87995 10.21 2.83995 10.12 2.75995 10.06C2.67995 10 2.59995 9.97003 2.51995 9.97003ZM4.01995 11.53C3.89995 11.53 3.80995 11.56 3.74995 11.62C3.68995 11.68 3.65995 11.77 3.65995 11.89V17.11C3.65995 17.23 3.68995 17.33 3.74995 17.41C3.80995 17.49 3.89995 17.53 4.01995 17.53H8.15995C8.23995 17.53 8.31995 17.49 8.39995 17.41C8.47995 17.33 8.51995 17.23 8.51995 17.11V13.03C8.51995 12.95 8.47995 12.87 8.39995 12.79C8.31995 12.71 8.22995 12.67 8.12995 12.67C8.02995 12.67 7.93995 12.71 7.85995 12.79C7.77995 12.87 7.73995 12.95 7.73995 13.03V16.75H4.37995V12.25H8.15995C8.23995 12.25 8.31995 12.22 8.39995 12.16C8.47995 12.1 8.51995 12.01 8.51995 11.89C8.51995 11.77 8.47995 11.68 8.39995 11.62C8.31995 11.56 8.23995 11.53 8.15995 11.53H4.01995ZM10.02 11.53C9.89995 11.53 9.80995 11.56 9.74995 11.62C9.68995 11.68 9.65995 11.77 9.65995 11.89V15.25C9.65995 15.37 9.68995 15.46 9.74995 15.52C9.80995 15.58 9.89995 15.61 10.02 15.61H14.52C14.6 15.61 14.68 15.58 14.76 15.52C14.84 15.46 14.88 15.37 14.88 15.25V13.03C14.88 12.95 14.84 12.87 14.76 12.79C14.68 12.71 14.59 12.67 14.49 12.67C14.39 12.67 14.31 12.71 14.25 12.79C14.19 12.87 14.16 12.95 14.16 13.03V14.89H10.38V12.25H14.52C14.6 12.25 14.68 12.22 14.76 12.16C14.84 12.1 14.88 12.01 14.88 11.89C14.88 11.77 14.84 11.68 14.76 11.62C14.68 11.56 14.6 11.53 14.52 11.53H10.02ZM9.23995 7.51003C8.79995 7.51003 8.42995 7.67003 8.12995 7.99003C7.82995 8.31003 7.67995 8.69003 7.67995 9.13003C7.67995 9.57003 7.82995 9.95003 8.12995 10.27C8.42995 10.59 8.79995 10.75 9.23995 10.75C9.67995 10.75 10.06 10.59 10.38 10.27C10.7 9.95003 10.86 9.57003 10.86 9.13003C10.86 9.01003 10.82 8.92003 10.74 8.86003C10.66 8.80003 10.57 8.77003 10.47 8.77003C10.37 8.77003 10.28 8.80003 10.2 8.86003C10.12 8.92003 10.08 9.01003 10.08 9.13003C10.08 9.37003 9.99995 9.57003 9.83995 9.73003C9.67995 9.89003 9.47995 9.97003 9.23995 9.97003C8.99995 9.97003 8.79995 9.89003 8.63995 9.73003C8.47995 9.57003 8.39995 9.37003 8.39995 9.13003C8.39995 8.89003 8.47995 8.69003 8.63995 8.53003C8.79995 8.37003 8.99995 8.29003 9.23995 8.29003C9.47995 8.29003 9.67995 8.37003 9.83995 8.53003C9.91995 8.61003 10.01 8.65003 10.11 8.65003C10.21 8.65003 10.3 8.61003 10.38 8.53003C10.46 8.45003 10.5 8.36003 10.5 8.26003C10.5 8.16003 10.46 8.07003 10.38 7.99003C10.06 7.67003 9.67995 7.51003 9.23995 7.51003ZM11.7 12.85C11.54 12.85 11.44 12.93 11.4 13.09L10.98 13.69C10.94 13.81 10.93 13.92 10.95 14.02C10.97 14.12 11.03 14.19 11.13 14.23C11.23 14.27 11.33 14.28 11.43 14.26C11.53 14.24 11.6 14.19 11.64 14.11L12 13.45C12.08 13.37 12.1 13.28 12.06 13.18C12.02 13.08 11.97 13.01 11.91 12.97C11.85 12.93 11.78 12.89 11.7 12.85ZM13.2 12.85C13.04 12.85 12.94 12.93 12.9 13.09L12.48 13.69C12.44 13.81 12.43 13.92 12.45 14.02C12.47 14.12 12.53 14.19 12.63 14.23C12.73 14.27 12.83 14.28 12.93 14.26C13.03 14.24 13.1 14.19 13.14 14.11L13.5 13.45C13.58 13.37 13.6 13.28 13.56 13.18C13.52 13.08 13.47 13.01 13.41 12.97C13.35 12.93 13.28 12.89 13.2 12.85ZM15.42 0.250031C14.78 0.250031 14.22 0.49003 13.74 0.97003C13.26 1.45003 13.02 2.03003 13.02 2.71003C13.02 3.39003 13.26 3.96003 13.74 4.42003C14.22 4.88003 14.79 5.11003 15.45 5.11003C16.11 5.11003 16.68 4.88003 17.16 4.42003C17.64 3.96003 17.88 3.39003 17.88 2.71003C17.88 2.03003 17.64 1.45003 17.16 0.97003C16.68 0.49003 16.1 0.250031 15.42 0.250031ZM15.42 1.03003C15.9 1.03003 16.31 1.19003 16.65 1.51003C16.99 1.83003 17.16 2.23003 17.16 2.71003C17.16 3.19003 16.99 3.59003 16.65 3.91003C16.31 4.23003 15.91 4.39003 15.45 4.39003C14.99 4.39003 14.59 4.23003 14.25 3.91003C13.91 3.59003 13.74 3.19003 13.74 2.71003C13.74 2.23003 13.91 1.83003 14.25 1.51003C14.59 1.19003 14.98 1.03003 15.42 1.03003ZM2.57995 3.43003C2.49995 3.43003 2.41995 3.46003 2.33995 3.52003C2.25995 3.58003 2.21995 3.67003 2.21995 3.79003V8.05003C2.21995 8.13003 2.25995 8.21003 2.33995 8.29003C2.41995 8.37003 2.50995 8.41003 2.60995 8.41003C2.70995 8.41003 2.78995 8.37003 2.84995 8.29003C2.90995 8.21003 2.93995 8.13003 2.93995 8.05003V4.15003H4.43995V6.37003C4.43995 6.49003 4.47995 6.59003 4.55995 6.67003C4.63995 6.75003 4.72995 6.79003 4.82995 6.79003C4.92995 6.79003 5.01995 6.75003 5.09995 6.67003C5.17995 6.59003 5.21995 6.49003 5.21995 6.37003V3.79003C5.21995 3.67003 5.17995 3.58003 5.09995 3.52003C5.01995 3.46003 4.93995 3.43003 4.85995 3.43003H2.57995ZM1.85995 2.05003C1.73995 2.05003 1.63995 2.09003 1.55995 2.17003C1.47995 2.25003 1.43995 2.33003 1.43995 2.41003V3.79003C1.43995 3.87003 1.47995 3.95003 1.55995 4.03003C1.63995 4.11003 1.73995 4.15003 1.85995 4.15003H5.57995C5.69995 4.15003 5.78995 4.11003 5.84995 4.03003C5.90995 3.95003 5.93995 3.87003 5.93995 3.79003V2.41003C5.93995 2.33003 5.90995 2.25003 5.84995 2.17003C5.78995 2.09003 5.69995 2.05003 5.57995 2.05003H1.85995ZM2.21995 2.83003H5.21995V3.43003H2.21995V2.83003ZM5.75995 14.53C5.75995 14.65 5.70995 14.76 5.60995 14.86C5.50995 14.96 5.39995 15.01 5.27995 15.01C5.15995 15.01 5.04995 14.96 4.94995 14.86C4.84995 14.76 4.79995 14.64 4.79995 14.5C4.79995 14.36 4.84995 14.25 4.94995 14.17C5.04995 14.09 5.15995 14.05 5.27995 14.05C5.39995 14.05 5.50995 14.09 5.60995 14.17C5.70995 14.25 5.75995 14.37 5.75995 14.53ZM9.17995 3.37003C8.97995 3.37003 8.79995 3.43003 8.63995 3.55003L1.13995 8.71003C0.979951 8.83003 0.879951 9.00003 0.839951 9.22003C0.799951 9.44003 0.839951 9.63003 0.959951 9.79003L1.37995 10.39C1.49995 10.55 1.65995 10.65 1.85995 10.69C2.05995 10.73 2.25995 10.69 2.45995 10.57L9.23995 5.83003L16.08 10.57C16.24 10.69 16.43 10.73 16.65 10.69C16.87 10.65 17.04 10.55 17.16 10.39L17.58 9.79003C17.7 9.63003 17.74 9.44003 17.7 9.22003C17.66 9.00003 17.56 8.83003 17.4 8.71003L9.89995 3.55003C9.69995 3.43003 9.45995 3.37003 9.17995 3.37003ZM9.23995 4.09003C9.31995 4.09003 9.39995 4.11003 9.47995 4.15003L16.92 9.37003L16.5 9.97003L9.47995 5.11003C9.31995 4.99003 9.17995 4.99003 9.05995 5.11003L1.97995 9.97003L1.55995 9.37003L9.05995 4.15003C9.09995 4.11003 9.15995 4.09003 9.23995 4.09003Z" fill="#1A1A1A"/>
</svg>
