<svg width="311" height="139" viewBox="0 0 311 139" fill="none" xmlns="http://www.w3.org/2000/svg">
<g opacity="0.1" clip-path="url(#clip0_2043_23)">
<path fill-rule="evenodd" clip-rule="evenodd" d="M99.3353 59.5518L99.3265 90.0333L102.581 90.0242L102.572 79.3844L108.321 79.3754L108.312 90.0242H111.718V48.6753L108.303 50.94L108.299 76.1603L102.608 76.1414L102.612 53.936L81 66.4376L81.0291 83.5741L84.4445 83.5834L84.449 68.3336L99.3353 59.5518Z" fill="#1A1A1A"/>
<path fill-rule="evenodd" clip-rule="evenodd" d="M93.4252 89.8817V66.7256L90.0642 68.6955L90.1351 86.7371L81.0515 86.6657L81.0066 89.8636L93.4252 89.8817Z" fill="#1A1A1A"/>
<path d="M135.294 72.7364V61.537H138.044V72.7364C138.044 73.7988 137.817 74.7037 137.362 75.451C136.907 76.1984 136.288 76.7699 135.503 77.1656C134.718 77.5613 133.828 77.7591 132.83 77.7591C131.811 77.7591 130.905 77.5869 130.113 77.2425C129.329 76.8982 128.713 76.3706 128.265 75.6598C127.818 74.9491 127.594 74.0479 127.594 72.9562H130.366C130.366 73.5863 130.465 74.0956 130.663 74.4838C130.869 74.8649 131.155 75.1433 131.521 75.3192C131.895 75.4877 132.332 75.5719 132.83 75.5719C133.307 75.5719 133.729 75.4657 134.095 75.2532C134.469 75.0334 134.762 74.7147 134.975 74.297C135.188 73.8721 135.294 73.3519 135.294 72.7364Z" fill="#1A1A1A"/>
<path d="M148.119 74.7367V65.6475H150.781V77.5393H148.273L148.119 74.7367ZM148.493 72.2638L149.384 72.2418C149.384 73.0405 149.296 73.7768 149.12 74.4509C148.944 75.1177 148.673 75.7002 148.306 76.1984C147.94 76.6893 147.47 77.074 146.898 77.3525C146.326 77.6235 145.641 77.7591 144.842 77.7591C144.262 77.7591 143.731 77.6748 143.247 77.5063C142.763 77.3378 142.345 77.0777 141.993 76.726C141.648 76.3742 141.38 75.9164 141.19 75.3521C140.999 74.788 140.904 74.1139 140.904 73.3299V65.6475H143.555V73.3519C143.555 73.7842 143.606 74.1469 143.709 74.4399C143.811 74.7257 143.951 74.9565 144.127 75.1323C144.303 75.3082 144.508 75.4328 144.743 75.506C144.977 75.5793 145.227 75.6159 145.491 75.6159C146.246 75.6159 146.84 75.4694 147.272 75.1763C147.712 74.8759 148.024 74.4729 148.207 73.9673C148.398 73.4618 148.493 72.8939 148.493 72.2638Z" fill="#1A1A1A"/>
<path d="M160.174 74.319C160.174 74.0552 160.108 73.8171 159.976 73.6046C159.844 73.3848 159.592 73.187 159.217 73.0111C158.851 72.8353 158.308 72.6741 157.59 72.5275C156.959 72.3883 156.38 72.2235 155.852 72.033C155.331 71.8351 154.884 71.597 154.51 71.3186C154.136 71.0401 153.846 70.7104 153.641 70.3294C153.436 69.9484 153.333 69.5089 153.333 69.0106C153.333 68.527 153.439 68.0691 153.652 67.6368C153.865 67.2045 154.169 66.8235 154.565 66.4938C154.961 66.164 155.441 65.9039 156.006 65.7134C156.578 65.5229 157.216 65.4277 157.92 65.4277C158.917 65.4277 159.772 65.5962 160.483 65.9332C161.201 66.2629 161.751 66.7135 162.133 67.285C162.514 67.8493 162.705 68.4867 162.705 69.1975H160.054C160.054 68.8824 159.973 68.5893 159.811 68.3182C159.658 68.0398 159.423 67.8163 159.108 67.6477C158.792 67.4719 158.396 67.384 157.92 67.384C157.465 67.384 157.087 67.4572 156.787 67.6038C156.493 67.743 156.274 67.9262 156.127 68.1533C155.988 68.3805 155.918 68.6296 155.918 68.9007C155.918 69.0985 155.955 69.278 156.028 69.4392C156.109 69.5931 156.241 69.736 156.424 69.8679C156.607 69.9924 156.856 70.1096 157.172 70.2196C157.495 70.3294 157.898 70.4357 158.382 70.5382C159.291 70.7287 160.072 70.9742 160.725 71.2747C161.385 71.5677 161.89 71.9487 162.243 72.4177C162.595 72.8793 162.771 73.4654 162.771 74.1761C162.771 74.7037 162.657 75.1873 162.43 75.6269C162.21 76.0592 161.887 76.4365 161.461 76.7589C161.036 77.074 160.527 77.3194 159.933 77.4953C159.346 77.6711 158.686 77.7591 157.953 77.7591C156.875 77.7591 155.962 77.5685 155.214 77.1875C154.466 76.7992 153.898 76.3046 153.509 75.7038C153.128 75.0957 152.937 74.4655 152.937 73.8134H155.5C155.529 74.3044 155.665 74.6964 155.907 74.9894C156.156 75.2752 156.464 75.484 156.831 75.6159C157.205 75.7405 157.59 75.8027 157.986 75.8027C158.462 75.8027 158.862 75.7405 159.184 75.6159C159.508 75.484 159.753 75.3082 159.922 75.0883C160.09 74.8612 160.174 74.6047 160.174 74.319Z" fill="#1A1A1A"/>
<path d="M170.547 65.6475V67.5818H163.838V65.6475H170.547ZM165.773 62.735H168.425V74.2531C168.425 74.6195 168.476 74.9015 168.578 75.0994C168.689 75.2899 168.839 75.4181 169.029 75.4841C169.22 75.55 169.444 75.583 169.7 75.583C169.883 75.583 170.06 75.572 170.228 75.55C170.397 75.528 170.533 75.506 170.636 75.4841L170.646 77.5063C170.426 77.5722 170.17 77.6309 169.877 77.6822C169.59 77.7335 169.26 77.7591 168.887 77.7591C168.278 77.7591 167.739 77.6528 167.27 77.4404C166.8 77.2205 166.433 76.8652 166.169 76.3742C165.905 75.8834 165.773 75.2312 165.773 74.4179V62.735Z" fill="#1A1A1A"/>
<path d="M183.439 68.2192V70.4064H174.936V68.2192H183.439ZM175.618 61.537V77.5393H172.857V61.537H175.618ZM185.561 61.537V77.5393H182.812V61.537H185.561Z" fill="#1A1A1A"/>
<path d="M188.081 71.7253V71.4724C188.081 70.6152 188.205 69.8202 188.454 69.0875C188.704 68.3475 189.063 67.7064 189.533 67.1642C190.009 66.6147 190.588 66.1897 191.27 65.8893C191.959 65.5816 192.737 65.4277 193.602 65.4277C194.474 65.4277 195.252 65.5816 195.934 65.8893C196.623 66.1897 197.207 66.6147 197.683 67.1642C198.16 67.7064 198.523 68.3475 198.772 69.0875C199.021 69.8202 199.146 70.6152 199.146 71.4724V71.7253C199.146 72.5825 199.021 73.3775 198.772 74.1102C198.523 74.8429 198.16 75.484 197.683 76.0336C197.207 76.5757 196.627 77.0007 195.945 77.3084C195.263 77.6089 194.489 77.7591 193.624 77.7591C192.751 77.7591 191.971 77.6089 191.281 77.3084C190.599 77.0007 190.02 76.5757 189.543 76.0336C189.067 75.484 188.704 74.8429 188.454 74.1102C188.205 73.3775 188.081 72.5825 188.081 71.7253ZM190.731 71.4724V71.7253C190.731 72.2601 190.787 72.7657 190.896 73.2419C191.006 73.7182 191.179 74.1358 191.413 74.4949C191.648 74.8539 191.948 75.136 192.315 75.3412C192.682 75.5463 193.118 75.6489 193.624 75.6489C194.115 75.6489 194.54 75.5463 194.9 75.3412C195.266 75.136 195.567 74.8539 195.802 74.4949C196.037 74.1358 196.209 73.7182 196.319 73.2419C196.436 72.7657 196.495 72.2601 196.495 71.7253V71.4724C196.495 70.9449 196.436 70.4467 196.319 69.9778C196.209 69.5015 196.033 69.0802 195.791 68.7139C195.556 68.3475 195.256 68.0617 194.889 67.8566C194.53 67.6441 194.101 67.5379 193.602 67.5379C193.103 67.5379 192.671 67.6441 192.304 67.8566C191.945 68.0617 191.648 68.3475 191.413 68.7139C191.179 69.0802 191.006 69.5015 190.896 69.9778C190.787 70.4467 190.731 70.9449 190.731 71.4724Z" fill="#1A1A1A"/>
<path d="M204.019 68.0654V77.5393H201.367V65.6475H203.864L204.019 68.0654ZM203.59 71.1538L202.687 71.1427C202.687 70.3222 202.79 69.5638 202.996 68.8677C203.2 68.1716 203.501 67.5672 203.897 67.0543C204.293 66.5341 204.784 66.1348 205.371 65.8563C205.965 65.5705 206.651 65.4277 207.428 65.4277C207.971 65.4277 208.465 65.5083 208.913 65.6695C209.368 65.8234 209.76 66.0688 210.09 66.4058C210.427 66.7429 210.684 67.1752 210.86 67.7027C211.043 68.2303 211.135 68.8677 211.135 69.6151V77.5393H208.484V69.8458C208.484 69.2671 208.396 68.8128 208.22 68.483C208.051 68.1533 207.806 67.9189 207.483 67.7797C207.168 67.6331 206.79 67.5598 206.35 67.5598C205.852 67.5598 205.426 67.6551 205.075 67.8456C204.73 68.0361 204.448 68.2962 204.227 68.6259C204.007 68.9557 203.846 69.3367 203.743 69.769C203.641 70.2013 203.59 70.6628 203.59 71.1538ZM210.97 70.4503L209.727 70.7251C209.727 70.0071 209.826 69.3293 210.024 68.6919C210.229 68.0471 210.526 67.4829 210.915 66.9993C211.311 66.5084 211.798 66.1237 212.378 65.8453C212.957 65.5669 213.621 65.4277 214.369 65.4277C214.978 65.4277 215.52 65.512 215.997 65.6805C216.481 65.8417 216.892 66.0981 217.228 66.4498C217.566 66.8015 217.822 67.2595 217.999 67.8236C218.175 68.3805 218.263 69.0546 218.263 69.8458V77.5393H215.601V69.8349C215.601 69.2341 215.512 68.7688 215.337 68.4391C215.168 68.1094 214.926 67.8823 214.611 67.7577C214.295 67.6258 213.918 67.5598 213.478 67.5598C213.067 67.5598 212.704 67.6368 212.389 67.7906C212.081 67.9372 211.821 68.146 211.608 68.4171C211.396 68.6809 211.234 68.9849 211.124 69.3293C211.021 69.6737 210.97 70.0474 210.97 70.4503Z" fill="#1A1A1A"/>
<path d="M226.237 77.7591C225.357 77.7591 224.562 77.6162 223.85 77.3304C223.147 77.0374 222.545 76.6307 222.046 76.1104C221.555 75.5902 221.177 74.9785 220.913 74.275C220.649 73.5717 220.517 72.8133 220.517 72V71.5604C220.517 70.6299 220.653 69.7873 220.924 69.0325C221.196 68.2779 221.573 67.6331 222.058 67.0982C222.541 66.556 223.114 66.142 223.774 65.8563C224.433 65.5705 225.148 65.4277 225.918 65.4277C226.769 65.4277 227.513 65.5705 228.151 65.8563C228.789 66.142 229.317 66.545 229.735 67.0653C230.16 67.5781 230.476 68.19 230.681 68.9007C230.893 69.6114 231 70.3954 231 71.2527V72.3847H221.804V70.4833H228.382V70.2745C228.367 69.7982 228.272 69.3513 228.096 68.9337C227.927 68.516 227.667 68.179 227.315 67.9225C226.963 67.6661 226.494 67.5379 225.907 67.5379C225.467 67.5379 225.075 67.6331 224.73 67.8236C224.393 68.0068 224.11 68.2742 223.883 68.6259C223.656 68.9776 223.48 69.4026 223.355 69.9008C223.238 70.3918 223.18 70.9449 223.18 71.5604V72C223.18 72.5203 223.249 73.0038 223.388 73.4508C223.535 73.8904 223.747 74.275 224.026 74.6047C224.305 74.9345 224.642 75.1946 225.038 75.3851C225.434 75.5683 225.885 75.6598 226.391 75.6598C227.029 75.6598 227.597 75.5317 228.096 75.2752C228.595 75.0187 229.027 74.656 229.394 74.1871L230.791 75.5389C230.534 75.9127 230.2 76.2717 229.79 76.616C229.379 76.9531 228.877 77.2279 228.283 77.4403C227.696 77.6528 227.014 77.7591 226.237 77.7591Z" fill="#1A1A1A"/>
</g>
<defs>
<clipPath id="clip0_2043_23">
<rect width="150" height="42.75" fill="white" transform="translate(81 48)"/>
</clipPath>
</defs>
</svg>
