<svg width="51" height="51" viewBox="0 0 51 51" fill="none" xmlns="http://www.w3.org/2000/svg">
<g clip-path="url(#clip0_2_146)">
<path d="M25.74 45.7468H10.24C9.35108 45.7468 8.62886 45.4413 8.0733 44.8302C7.51775 44.2191 7.23997 43.5246 7.23997 42.7468V21.9135L22.9066 8.08017C23.6844 7.41351 24.6289 7.08017 25.74 7.08017C26.8511 7.08017 27.7955 7.41351 28.5733 8.08017L48.4066 25.5802C48.6289 25.8024 48.9066 25.8857 49.24 25.8302C49.5733 25.7746 49.8511 25.6357 50.0733 25.4135C50.2955 25.1913 50.3789 24.9135 50.3233 24.5802C50.2677 24.2468 50.1289 23.9691 49.9066 23.7468L46.5733 20.9135V9.08017C46.5733 7.41351 45.9622 5.96906 44.74 4.74684C43.5177 3.52462 42.0733 2.94128 40.4066 2.99684C38.74 3.05239 37.3233 3.66351 36.1566 4.83017C34.99 5.99684 34.3511 7.41351 34.24 9.08017V10.0802L30.0733 6.41351C28.8511 5.30239 27.4066 4.74684 25.74 4.74684C24.0733 4.74684 22.6289 5.30239 21.4066 6.41351L1.5733 23.7468C1.23997 23.9691 1.0733 24.2468 1.0733 24.5802C1.0733 24.9135 1.18441 25.1913 1.40664 25.4135C1.62886 25.6357 1.90664 25.7746 2.23997 25.8302C2.5733 25.8857 2.85108 25.8024 3.0733 25.5802L4.90664 24.0802V42.7468C4.90664 44.1913 5.43441 45.4413 6.48997 46.4968C7.54553 47.5524 8.79553 48.0802 10.24 48.0802H25.74C26.0733 48.0802 26.3511 47.9691 26.5733 47.7468C26.7955 47.5246 26.9066 47.2468 26.9066 46.9135C26.9066 46.5802 26.7955 46.3024 26.5733 46.0802C26.3511 45.858 26.0733 45.7468 25.74 45.7468ZM36.5733 9.08017C36.6844 7.96906 37.1011 7.05239 37.8233 6.33017C38.5455 5.60795 39.4344 5.27462 40.49 5.33017C41.5455 5.38573 42.4344 5.77462 43.1566 6.49684C43.8789 7.21906 44.24 8.08017 44.24 9.08017V18.7468L36.5733 12.0802V9.08017ZM25.74 14.7468C24.1844 14.7468 22.8511 15.3024 21.74 16.4135C20.6289 17.5246 20.0733 18.858 20.0733 20.4135C20.0733 21.9691 20.6289 23.3024 21.74 24.4135C22.8511 25.5246 24.1844 26.0802 25.74 26.0802C27.2955 26.0802 28.6289 25.5246 29.74 24.4135C30.8511 23.3024 31.4066 21.9691 31.4066 20.4135C31.4066 18.858 30.8511 17.5246 29.74 16.4135C28.6289 15.3024 27.2955 14.7468 25.74 14.7468ZM29.0733 20.4135C29.0733 21.4135 28.74 22.2191 28.0733 22.8302C27.4066 23.4413 26.6289 23.7468 25.74 23.7468C24.8511 23.7468 24.0733 23.4413 23.4066 22.8302C22.74 22.2191 22.4066 21.4413 22.4066 20.4968C22.4066 19.5524 22.74 18.7468 23.4066 18.0802C24.0733 17.4135 24.8511 17.0802 25.74 17.0802C26.6289 17.0802 27.4066 17.4135 28.0733 18.0802C28.74 18.7468 29.0733 19.5246 29.0733 20.4135ZM50.0733 46.2468L46.0733 42.0802C47.0733 40.6357 47.5733 39.0246 47.5733 37.2468C47.5733 35.0246 46.7677 33.1357 45.1566 31.5802C43.5455 30.0246 41.6289 29.2468 39.4066 29.2468C37.1844 29.2468 35.2677 30.0246 33.6566 31.5802C32.0455 33.1357 31.24 35.0524 31.24 37.3302C31.24 39.608 32.0455 41.5246 33.6566 43.0802C35.2677 44.6357 37.1844 45.4135 39.4066 45.4135C41.2955 45.4135 42.9622 44.858 44.4066 43.7468L48.24 47.7468C48.4622 47.9691 48.74 48.108 49.0733 48.1635C49.4066 48.2191 49.7122 48.1357 49.99 47.9135C50.2677 47.6913 50.4066 47.4135 50.4066 47.0802C50.4066 46.7468 50.2955 46.4691 50.0733 46.2468ZM39.4066 43.0802C37.8511 43.0802 36.49 42.5246 35.3233 41.4135C34.1566 40.3024 33.5733 38.9413 33.5733 37.3302C33.5733 35.7191 34.1566 34.358 35.3233 33.2468C36.49 32.1357 37.8789 31.5802 39.49 31.5802C41.1011 31.5802 42.4622 32.1357 43.5733 33.2468C44.6844 34.358 45.24 35.7191 45.24 37.3302C45.24 38.9413 44.6844 40.3024 43.5733 41.4135C42.4622 42.5246 41.0733 43.0802 39.4066 43.0802Z" fill="#1A1A1A"/>
</g>
<defs>
<clipPath id="clip0_2_146">
<rect width="50.02" height="50" fill="white" transform="matrix(1 0 0 -1 0.72998 50.5801)"/>
</clipPath>
</defs>
</svg>
