<svg width="51" height="51" viewBox="0 0 51 51" fill="none" xmlns="http://www.w3.org/2000/svg">
<g clip-path="url(#clip0_2_158)">
<path d="M4.40666 7.24674C4.62888 7.24674 4.8511 7.19119 5.07332 7.08008L6.73999 5.41341C6.8511 5.19119 6.90666 4.96897 6.90666 4.74674C6.90666 4.52452 6.82332 4.33008 6.65666 4.16341C6.48999 3.99674 6.29555 3.91341 6.07332 3.91341C5.8511 3.91341 5.62888 3.96897 5.40666 4.08008L3.73999 5.74674C3.51777 6.08008 3.48999 6.41341 3.65666 6.74674C3.82332 7.08008 4.07332 7.24674 4.40666 7.24674ZM4.40666 11.4134C4.62888 11.4134 4.8511 11.3579 5.07332 11.2467L10.9067 5.41341C11.1289 5.19119 11.1844 4.91341 11.0733 4.58008C10.9622 4.24674 10.74 4.02452 10.4067 3.91341C10.0733 3.8023 9.79555 3.85785 9.57332 4.08008L3.73999 9.91341C3.51777 10.2467 3.48999 10.5801 3.65666 10.9134C3.82332 11.2467 4.07332 11.4134 4.40666 11.4134ZM46.0733 0.580078H4.40666C3.29555 0.580078 2.32332 0.996742 1.48999 1.83008C0.656657 2.66341 0.23999 3.63563 0.23999 4.74674V38.0801C0.23999 39.1912 0.656657 40.1634 1.48999 40.9967C2.32332 41.8301 3.29555 42.2467 4.40666 42.2467H18.5733V44.7467H16.0733C15.1844 44.7467 14.4067 45.0801 13.74 45.7467C13.0733 46.4134 12.74 47.1912 12.74 48.0801V48.9134C12.74 49.3579 12.9067 49.7467 13.24 50.0801C13.5733 50.4134 13.9622 50.5801 14.4067 50.5801H36.0733C36.5178 50.5801 36.9067 50.4134 37.24 50.0801C37.5733 49.7467 37.74 49.3579 37.74 48.9134V48.0801C37.74 47.1912 37.4067 46.4134 36.74 45.7467C36.0733 45.0801 35.2955 44.7467 34.4067 44.7467H31.9067V42.2467H46.0733C47.1844 42.2467 48.1567 41.8301 48.99 40.9967C49.8233 40.1634 50.24 39.1912 50.24 38.0801V4.74674C50.24 3.63563 49.8233 2.66341 48.99 1.83008C48.1567 0.996742 47.1844 0.580078 46.0733 0.580078ZM48.5733 33.9134H41.9067V18.9134H48.5733V33.9134ZM48.5733 17.2467H41.9067V10.5801H48.5733V17.2467ZM48.5733 4.74674V8.91341H41.9067V2.24674H46.0733C46.74 2.24674 47.3233 2.49674 47.8233 2.99674C48.3233 3.49674 48.5733 4.08008 48.5733 4.74674ZM4.40666 2.24674H40.24V33.9134H1.90666V4.74674C1.90666 4.08008 2.15666 3.49674 2.65666 2.99674C3.15666 2.49674 3.73999 2.24674 4.40666 2.24674ZM36.0733 48.0801V48.9134H14.4067V48.0801C14.4067 47.6356 14.5733 47.2467 14.9067 46.9134C15.24 46.5801 15.6289 46.4134 16.0733 46.4134H34.4067C34.8511 46.4134 35.24 46.5801 35.5733 46.9134C35.9067 47.2467 36.0733 47.6356 36.0733 48.0801ZM30.24 44.7467H20.24V42.2467H30.24V44.7467ZM46.0733 40.5801H4.40666C3.73999 40.5801 3.15666 40.3301 2.65666 39.8301C2.15666 39.3301 1.90666 38.7467 1.90666 38.0801V35.5801H48.5733V38.0801C48.5733 38.7467 48.3233 39.3301 47.8233 39.8301C47.3233 40.3301 46.74 40.5801 46.0733 40.5801ZM27.74 37.2467H22.74C22.5178 37.2467 22.3233 37.3301 22.1567 37.4967C21.99 37.6634 21.9067 37.8579 21.9067 38.0801C21.9067 38.3023 21.99 38.4967 22.1567 38.6634C22.3233 38.8301 22.5178 38.9134 22.74 38.9134H27.74C27.9622 38.9134 28.1567 38.8301 28.3233 38.6634C28.49 38.4967 28.5733 38.3023 28.5733 38.0801C28.5733 37.8579 28.49 37.6634 28.3233 37.4967C28.1567 37.3301 27.9622 37.2467 27.74 37.2467ZM42.9067 7.08008C43.1289 7.19119 43.3511 7.24674 43.5733 7.24674C43.7955 7.24674 44.0178 7.19119 44.24 7.08008L45.24 5.91341L46.24 7.08008C46.4622 7.19119 46.6844 7.24674 46.9067 7.24674C47.1289 7.24674 47.3233 7.16341 47.49 6.99674C47.6567 6.83008 47.74 6.63563 47.74 6.41341C47.74 6.19119 47.6844 5.96897 47.5733 5.74674L45.9067 4.08008C45.6844 3.96897 45.4622 3.91341 45.24 3.91341C45.0178 3.91341 44.7955 3.96897 44.5733 4.08008L42.9067 5.74674C42.7955 5.96897 42.74 6.19119 42.74 6.41341C42.74 6.63563 42.7955 6.85785 42.9067 7.08008ZM44.5733 32.0801C44.7955 32.1912 45.0178 32.2467 45.24 32.2467C45.4622 32.2467 45.6844 32.1912 45.9067 32.0801L47.5733 30.4134C47.6844 30.1912 47.74 29.969 47.74 29.7467C47.74 29.5245 47.6567 29.3301 47.49 29.1634C47.3233 28.9967 47.1289 28.9134 46.9067 28.9134C46.6844 28.9134 46.4622 28.969 46.24 29.0801L45.24 30.2467L44.24 29.0801C44.0178 28.969 43.7955 28.9134 43.5733 28.9134C43.3511 28.9134 43.1567 28.9967 42.99 29.1634C42.8233 29.3301 42.74 29.5245 42.74 29.7467C42.74 29.969 42.7955 30.1912 42.9067 30.4134L44.5733 32.0801ZM43.5733 14.7467H46.9067C47.1289 14.7467 47.3233 14.6634 47.49 14.4967C47.6567 14.3301 47.74 14.1356 47.74 13.9134C47.74 13.6912 47.6567 13.4967 47.49 13.3301C47.3233 13.1634 47.1289 13.0801 46.9067 13.0801H43.5733C43.3511 13.0801 43.1567 13.1634 42.99 13.3301C42.8233 13.4967 42.74 13.6912 42.74 13.9134C42.74 14.1356 42.8233 14.3301 42.99 14.4967C43.1567 14.6634 43.3511 14.7467 43.5733 14.7467ZM4.57332 16.0801C4.79555 16.8579 5.29555 17.2467 6.07332 17.2467V25.5801C6.07332 26.0245 6.23999 26.4134 6.57332 26.7467C6.90666 27.0801 7.29555 27.2467 7.73999 27.2467H21.0733C21.5178 27.2467 21.9067 27.0801 22.24 26.7467C22.5733 26.4134 22.74 26.0245 22.74 25.5801V17.2467C23.5178 17.2467 24.0178 16.8579 24.24 16.0801C24.3511 15.8579 24.3789 15.5523 24.3233 15.1634C24.2678 14.7745 24.1289 14.469 23.9067 14.2467L22.74 13.2467V8.91341C22.74 8.46897 22.5733 8.08008 22.24 7.74674C21.9067 7.41341 21.5178 7.24674 21.0733 7.24674H19.4067C18.9622 7.24674 18.5733 7.38563 18.24 7.66341C17.9067 7.94119 17.74 8.3023 17.74 8.74674L15.5733 6.91341C15.24 6.58008 14.8511 6.41341 14.4067 6.41341C13.9622 6.41341 13.5733 6.58008 13.24 6.91341L4.90666 14.2467C4.68443 14.469 4.54555 14.7745 4.48999 15.1634C4.43443 15.5523 4.46221 15.8579 4.57332 16.0801ZM13.5733 25.5801V23.0801C13.5733 22.8579 13.6567 22.6634 13.8233 22.4967C13.99 22.3301 14.1844 22.2467 14.4067 22.2467C14.6289 22.2467 14.8233 22.3301 14.99 22.4967C15.1567 22.6634 15.24 22.8579 15.24 23.0801V25.5801H13.5733ZM16.9067 25.5801V23.0801C16.9067 22.4134 16.6567 21.8301 16.1567 21.3301C15.6567 20.8301 15.0733 20.5801 14.4067 20.5801C13.74 20.5801 13.1567 20.8301 12.6567 21.3301C12.1567 21.8301 11.9067 22.4134 11.9067 23.0801V25.5801H7.73999V17.2467H21.0733V25.5801H16.9067ZM19.4067 8.91341H21.0733V11.7467L19.4067 10.2467V8.91341ZM14.4067 8.08008L22.74 15.5801H6.07332L14.4067 8.08008ZM26.9067 22.2467H36.9067C37.1289 22.2467 37.3233 22.1634 37.49 21.9967C37.6567 21.8301 37.74 21.6356 37.74 21.4134C37.74 21.1912 37.6567 20.9967 37.49 20.8301C37.3233 20.6634 37.1289 20.5801 36.9067 20.5801H26.9067C26.6844 20.5801 26.49 20.6634 26.3233 20.8301C26.1567 20.9967 26.0733 21.1912 26.0733 21.4134C26.0733 21.6356 26.1567 21.8301 26.3233 21.9967C26.49 22.1634 26.6844 22.2467 26.9067 22.2467ZM26.9067 26.4134H36.9067C37.1289 26.4134 37.3233 26.3301 37.49 26.1634C37.6567 25.9967 37.74 25.8023 37.74 25.5801C37.74 25.3579 37.6567 25.1634 37.49 24.9967C37.3233 24.8301 37.1289 24.7467 36.9067 24.7467H26.9067C26.6844 24.7467 26.49 24.8301 26.3233 24.9967C26.1567 25.1634 26.0733 25.3579 26.0733 25.5801C26.0733 25.8023 26.1567 25.9967 26.3233 26.1634C26.49 26.3301 26.6844 26.4134 26.9067 26.4134ZM26.9067 30.5801H31.9067C32.1289 30.5801 32.3233 30.4967 32.49 30.3301C32.6567 30.1634 32.74 29.969 32.74 29.7467C32.74 29.5245 32.6567 29.3301 32.49 29.1634C32.3233 28.9967 32.1289 28.9134 31.9067 28.9134H26.9067C26.6844 28.9134 26.49 28.9967 26.3233 29.1634C26.1567 29.3301 26.0733 29.5245 26.0733 29.7467C26.0733 29.969 26.1567 30.1634 26.3233 30.3301C26.49 30.4967 26.6844 30.5801 26.9067 30.5801ZM29.4067 13.9134C29.4067 13.6912 29.3233 13.4967 29.1567 13.3301C28.99 13.1634 28.7955 13.0801 28.5733 13.0801C28.3511 13.0801 28.1567 13.1634 27.99 13.3301C27.8233 13.4967 27.74 13.6912 27.74 13.9134C27.74 14.6912 28.0455 15.3856 28.6567 15.9967C29.2678 16.6079 30.0733 17.0245 31.0733 17.2467V18.0801C31.0733 18.3023 31.1567 18.4967 31.3233 18.6634C31.49 18.8301 31.6844 18.9134 31.9067 18.9134C32.1289 18.9134 32.3233 18.8301 32.49 18.6634C32.6567 18.4967 32.74 18.3023 32.74 18.0801V17.2467C33.74 17.0245 34.5455 16.6079 35.1567 15.9967C35.7678 15.3856 36.0733 14.6912 36.0733 13.9134C36.0733 13.1356 35.7678 12.4412 35.1567 11.8301C34.5455 11.219 33.74 10.8023 32.74 10.5801V7.41341C33.1844 7.52452 33.5733 7.71897 33.9067 7.99674C34.24 8.27452 34.4067 8.5523 34.4067 8.83008C34.4067 9.10785 34.49 9.33008 34.6567 9.49674C34.8233 9.66341 35.0178 9.74674 35.24 9.74674C35.4622 9.74674 35.6567 9.66341 35.8233 9.49674C35.99 9.33008 36.0733 9.13563 36.0733 8.91341C36.0733 8.13563 35.7678 7.44119 35.1567 6.83008C34.5455 6.21897 33.74 5.8023 32.74 5.58008V4.74674C32.74 4.52452 32.6567 4.33008 32.49 4.16341C32.3233 3.99674 32.1289 3.91341 31.9067 3.91341C31.6844 3.91341 31.49 3.99674 31.3233 4.16341C31.1567 4.33008 31.0733 4.52452 31.0733 4.74674V5.58008C30.0733 5.8023 29.2678 6.21897 28.6567 6.83008C28.0455 7.44119 27.74 8.13563 27.74 8.91341C27.74 9.69119 28.0455 10.3856 28.6567 10.9967C29.2678 11.6079 30.0733 12.0245 31.0733 12.2467V15.4134C30.6289 15.3023 30.24 15.1079 29.9067 14.8301C29.5733 14.5523 29.4067 14.2467 29.4067 13.9134ZM34.4067 13.9134C34.4067 14.2467 34.24 14.5523 33.9067 14.8301C33.5733 15.1079 33.1844 15.3023 32.74 15.4134V12.4134C33.1844 12.5245 33.5733 12.719 33.9067 12.9967C34.24 13.2745 34.4067 13.5801 34.4067 13.9134ZM29.4067 8.91341C29.4067 8.58008 29.5733 8.27452 29.9067 7.99674C30.24 7.71897 30.6289 7.52452 31.0733 7.41341V10.4134C30.6289 10.3023 30.24 10.1079 29.9067 9.83008C29.5733 9.5523 29.4067 9.24674 29.4067 8.91341ZM10.24 29.7467C10.24 29.969 10.3233 30.1634 10.49 30.3301C10.6567 30.4967 10.8511 30.5801 11.0733 30.5801C11.2955 30.5801 11.49 30.4967 11.6567 30.3301C11.8233 30.1634 11.9067 29.969 11.9067 29.7467C11.9067 29.5245 11.8233 29.3301 11.6567 29.1634C11.49 28.9967 11.2955 28.9134 11.0733 28.9134C10.8511 28.9134 10.6567 28.9967 10.49 29.1634C10.3233 29.3301 10.24 29.5245 10.24 29.7467ZM13.5733 29.7467C13.5733 29.969 13.6567 30.1634 13.8233 30.3301C13.99 30.4967 14.1844 30.5801 14.4067 30.5801C14.6289 30.5801 14.8233 30.4967 14.99 30.3301C15.1567 30.1634 15.24 29.969 15.24 29.7467C15.24 29.5245 15.1567 29.3301 14.99 29.1634C14.8233 28.9967 14.6289 28.9134 14.4067 28.9134C14.1844 28.9134 13.99 28.9967 13.8233 29.1634C13.6567 29.3301 13.5733 29.5245 13.5733 29.7467ZM16.9067 29.7467C16.9067 29.969 16.99 30.1634 17.1567 30.3301C17.3233 30.4967 17.5178 30.5801 17.74 30.5801C17.9622 30.5801 18.1567 30.4967 18.3233 30.3301C18.49 30.1634 18.5733 29.969 18.5733 29.7467C18.5733 29.5245 18.49 29.3301 18.3233 29.1634C18.1567 28.9967 17.9622 28.9134 17.74 28.9134C17.5178 28.9134 17.3233 28.9967 17.1567 29.1634C16.99 29.3301 16.9067 29.5245 16.9067 29.7467Z" fill="#1A1A1A"/>
</g>
<defs>
<clipPath id="clip0_2_158">
<rect width="50.02" height="50" fill="white" transform="matrix(1 0 0 -1 0.22998 50.5801)"/>
</clipPath>
</defs>
</svg>
