<svg width="51" height="51" viewBox="0 0 51 51" fill="none" xmlns="http://www.w3.org/2000/svg">
<g clip-path="url(#clip0_2_154)">
<path d="M29.0733 20.4134C27.9622 20.4134 26.99 20.8301 26.1566 21.6634C25.3233 22.4967 24.9066 23.469 24.9066 24.5801C24.9066 25.6912 25.3233 26.6634 26.1566 27.4967C26.99 28.3301 27.9622 28.7467 29.0733 28.7467C30.1844 28.7467 31.1566 28.3301 31.99 27.4967C32.8233 26.6634 33.24 25.6912 33.24 24.5801C33.24 23.469 32.8233 22.4967 31.99 21.6634C31.1566 20.8301 30.1844 20.4134 29.0733 20.4134ZM29.0733 26.7467C28.5178 26.7467 28.0178 26.5523 27.5733 26.1634C27.1289 25.7745 26.9066 25.2745 26.9066 24.6634C26.9066 24.0523 27.1289 23.5245 27.5733 23.0801C28.0178 22.6356 28.5455 22.4134 29.1566 22.4134C29.7678 22.4134 30.2678 22.6356 30.6566 23.0801C31.0455 23.5245 31.24 24.0523 31.24 24.6634C31.24 25.2745 31.0455 25.7745 30.6566 26.1634C30.2678 26.5523 29.74 26.7467 29.0733 26.7467ZM47.0733 29.7467L50.4066 26.4134C50.6289 26.1912 50.74 25.969 50.74 25.7467C50.74 25.5245 50.6289 25.3023 50.4066 25.0801L44.9066 19.4134V9.74674C44.9066 9.52452 44.7955 9.3023 44.5733 9.08008C44.3511 8.85785 44.1289 8.74674 43.9066 8.74674H38.4066C38.1844 8.74674 37.9622 8.85785 37.74 9.08008C37.5178 9.3023 37.4066 9.52452 37.4066 9.74674V12.0801L31.4066 6.08008C30.74 5.41341 29.9622 5.08008 29.0733 5.08008C28.1844 5.08008 27.4066 5.41341 26.74 6.08008L23.4066 9.41341C22.8511 6.85785 21.5178 4.74674 19.4066 3.08008C17.2955 1.41341 14.9066 0.580078 12.24 0.580078C10.7955 0.580078 9.40665 0.857853 8.07331 1.41341C7.85109 1.41341 7.68442 1.5523 7.57331 1.83008C7.4622 2.10785 7.4622 2.35785 7.57331 2.58008C7.68442 2.8023 7.85109 2.96897 8.07331 3.08008C8.29553 3.19119 8.57331 3.24674 8.90665 3.24674C9.90665 2.8023 11.0178 2.58008 12.24 2.58008C14.0178 2.58008 15.6289 2.99674 17.0733 3.83008C18.5178 4.66341 19.6844 5.83008 20.5733 7.33008C21.4622 8.83008 21.9066 10.4412 21.9066 12.1634C21.9066 13.8856 21.4622 15.469 20.5733 16.9134C19.6844 18.3579 18.5178 19.5245 17.0733 20.4134C15.6289 21.3023 14.0455 21.7467 12.3233 21.7467C10.6011 21.7467 8.98998 21.3023 7.48998 20.4134C5.98998 19.5245 4.82331 18.3579 3.98998 16.9134C3.15665 15.469 2.73998 13.8579 2.73998 12.0801C2.73998 10.8579 2.90665 9.74674 3.23998 8.74674C3.35109 8.41341 3.35109 8.13563 3.23998 7.91341C3.12887 7.69119 2.9622 7.52452 2.73998 7.41341C2.51776 7.3023 2.26776 7.3023 1.98998 7.41341C1.7122 7.52452 1.57331 7.69119 1.57331 7.91341C1.01776 9.24674 0.739979 10.6356 0.739979 12.0801C0.739979 14.7467 1.57331 17.1356 3.23998 19.2467C4.90665 21.3579 7.01776 22.6912 9.57331 23.2467L7.73998 25.0801C7.51776 25.3023 7.40665 25.5245 7.40665 25.7467C7.40665 25.969 7.51776 26.1912 7.73998 26.4134L11.0733 29.7467C11.1844 29.8579 11.3511 29.969 11.5733 30.0801V44.7467H9.73998C9.51776 44.7467 9.29553 44.8301 9.07331 44.9967C8.85109 45.1634 8.73998 45.4134 8.73998 45.7467V49.5801C8.73998 49.9134 8.85109 50.1634 9.07331 50.3301C9.29553 50.4967 9.51776 50.5801 9.73998 50.5801H48.4066C48.74 50.5801 48.99 50.4967 49.1566 50.3301C49.3233 50.1634 49.4066 49.9134 49.4066 49.5801V45.7467C49.4066 45.4134 49.3233 45.1634 49.1566 44.9967C48.99 44.8301 48.74 44.7467 48.4066 44.7467H46.74V30.0801C46.8511 29.969 46.9622 29.8579 47.0733 29.7467ZM39.4066 10.7467H42.9066V17.5801L39.4066 14.0801V10.7467ZM28.0733 7.41341C28.4066 7.19119 28.74 7.08008 29.0733 7.08008C29.4066 7.08008 29.74 7.19119 30.0733 7.41341L48.4066 25.7467L46.4066 27.7467L29.74 11.0801C29.6289 10.8579 29.4344 10.7467 29.1566 10.7467C28.8789 10.7467 28.6289 10.8579 28.4066 11.0801L22.9066 16.4134C23.4622 15.0801 23.74 13.6356 23.74 12.0801V11.7467L28.0733 7.41341ZM9.73998 25.7467L11.9066 23.5801H12.24C13.7955 23.5801 15.24 23.3023 16.5733 22.7467L11.74 27.7467L9.73998 25.7467ZM47.4066 48.5801H10.74V46.7467H47.4066V48.5801ZM32.74 44.7467H25.4066V33.2467H32.74V44.7467ZM34.74 44.7467V32.2467C34.74 31.9134 34.6566 31.6634 34.49 31.4967C34.3233 31.3301 34.0733 31.2467 33.74 31.2467H24.4066C24.1844 31.2467 23.9622 31.3301 23.74 31.4967C23.5178 31.6634 23.4066 31.9134 23.4066 32.2467V44.7467H13.4066V28.7467L29.0733 13.0801L44.74 28.7467V44.7467H34.74ZM12.24 15.4134C11.7955 15.4134 11.4622 15.3856 11.24 15.3301C11.0178 15.2745 10.7955 15.1634 10.5733 14.9967C10.3511 14.8301 10.1011 14.7745 9.82331 14.8301C9.54554 14.8856 9.32331 15.0245 9.15665 15.2467C8.98998 15.469 8.93442 15.6912 8.98998 15.9134C9.04553 16.1356 9.18442 16.3579 9.40665 16.5801C10.0733 16.9134 10.6844 17.1356 11.24 17.2467V17.5801C11.24 17.8023 11.3511 18.0245 11.5733 18.2467C11.7955 18.469 12.0455 18.5801 12.3233 18.5801C12.6011 18.5801 12.8233 18.469 12.99 18.2467C13.1566 18.0245 13.24 17.8023 13.24 17.5801V17.0801C13.9066 16.969 14.4344 16.6634 14.8233 16.1634C15.2122 15.6634 15.4622 15.0801 15.5733 14.4134C15.6844 13.7467 15.5455 13.1079 15.1566 12.4967C14.7678 11.8856 14.1844 11.4134 13.4066 11.0801C12.4066 10.7467 11.74 10.4134 11.4066 10.0801C11.1844 9.96897 11.1289 9.74674 11.24 9.41341C11.3511 9.08008 11.5178 8.91341 11.74 8.91341C12.2955 8.69119 12.8511 8.74674 13.4066 9.08008C13.6289 9.3023 13.8789 9.38563 14.1566 9.33008C14.4344 9.27452 14.6289 9.13563 14.74 8.91341C14.8511 8.69119 14.9066 8.44119 14.9066 8.16341C14.9066 7.88563 14.7678 7.66341 14.49 7.49674C14.2122 7.33008 13.7955 7.13563 13.24 6.91341V6.58008C13.24 6.35785 13.1566 6.16341 12.99 5.99674C12.8233 5.83008 12.6011 5.74674 12.3233 5.74674C12.0455 5.74674 11.7955 5.83008 11.5733 5.99674C11.3511 6.16341 11.24 6.35785 11.24 6.58008V6.91341C10.7955 7.13563 10.3789 7.44119 9.98998 7.83008C9.60109 8.21897 9.35109 8.69119 9.23998 9.24674C9.12887 10.2467 9.40665 11.0801 10.0733 11.7467C10.6289 12.0801 11.5733 12.469 12.9066 12.9134C13.4622 13.1356 13.6844 13.5801 13.5733 14.2467C13.5733 14.469 13.4344 14.719 13.1566 14.9967C12.8789 15.2745 12.5733 15.4134 12.24 15.4134ZM3.90665 4.58008C3.90665 4.91341 3.98998 5.16341 4.15665 5.33008C4.32331 5.49674 4.54553 5.58008 4.82331 5.58008C5.10109 5.58008 5.32331 5.49674 5.48998 5.33008C5.65665 5.16341 5.73998 4.94119 5.73998 4.66341C5.73998 4.38563 5.65665 4.16341 5.48998 3.99674C5.32331 3.83008 5.10109 3.74674 4.82331 3.74674C4.54553 3.74674 4.32331 3.83008 4.15665 3.99674C3.98998 4.16341 3.90665 4.35785 3.90665 4.58008Z" fill="#1A1A1A"/>
</g>
<defs>
<clipPath id="clip0_2_154">
<rect width="50.02" height="50" fill="white" transform="matrix(1 0 0 -1 0.72998 50.5801)"/>
</clipPath>
</defs>
</svg>
