<svg width="150" height="44" viewBox="0 0 150 44" fill="none" xmlns="http://www.w3.org/2000/svg">
<path fill-rule="evenodd" clip-rule="evenodd" d="M18.3353 12.0518L18.3265 42.5333L21.5809 42.5242L21.5719 31.8844L27.3211 31.8754L27.312 42.5242H30.7184V1.17529L27.3029 3.43996L27.2987 28.6603L21.6077 28.6414L21.6122 6.43603L0 18.9376L0.0290845 36.0741L3.44454 36.0834L3.44896 20.8335L18.3353 12.0518Z" fill="#1A1A1A"/>
<path fill-rule="evenodd" clip-rule="evenodd" d="M12.4252 42.3816V19.2256L9.06417 21.1955L9.13512 39.237L0.051491 39.1656L0.0065918 42.3636L12.4252 42.3816Z" fill="#1A1A1A"/>
<path d="M54.2941 25.2364V14.037H57.0439V25.2364C57.0439 26.2988 56.8166 27.2037 56.362 27.951C55.9073 28.6984 55.2877 29.2699 54.5031 29.6656C53.7184 30.0613 52.8275 30.2591 51.8302 30.2591C50.8109 30.2591 49.9053 30.0869 49.1134 29.7425C48.3287 29.3982 47.7128 28.8706 47.2654 28.1598C46.8181 27.4491 46.5945 26.5479 46.5945 25.4562H49.3663C49.3663 26.0863 49.4653 26.5956 49.6633 26.9838C49.8687 27.3649 50.1547 27.6433 50.5213 27.8192C50.8953 27.9877 51.3316 28.0719 51.8302 28.0719C52.3069 28.0719 52.7285 27.9657 53.0952 27.7532C53.4691 27.5335 53.7625 27.2147 53.9751 26.797C54.1878 26.3721 54.2941 25.8519 54.2941 25.2364Z" fill="#1A1A1A"/>
<path d="M67.1194 27.2367V18.1475H69.7813V30.0393H67.2734L67.1194 27.2367ZM67.4934 24.7638L68.3843 24.7418C68.3843 25.5405 68.2963 26.2768 68.1204 26.9509C67.9444 27.6177 67.673 28.2002 67.3064 28.6984C66.9397 29.1893 66.4705 29.574 65.8984 29.8524C65.3265 30.1235 64.6408 30.2591 63.8416 30.2591C63.2623 30.2591 62.7306 30.1748 62.2467 30.0063C61.7627 29.8377 61.3447 29.5776 60.9928 29.226C60.6481 28.8742 60.3804 28.4163 60.1898 27.8521C59.9991 27.288 59.9037 26.6139 59.9037 25.8299V18.1475H62.5546V25.8519C62.5546 26.2842 62.606 26.6469 62.7086 26.9399C62.8113 27.2256 62.9506 27.4565 63.1266 27.6323C63.3026 27.8082 63.5079 27.9327 63.7425 28.006C63.9772 28.0793 64.2265 28.1159 64.4905 28.1159C65.2458 28.1159 65.8398 27.9693 66.2724 27.6763C66.7124 27.3759 67.0241 26.9729 67.2074 26.4673C67.3981 25.9617 67.4934 25.3939 67.4934 24.7638Z" fill="#1A1A1A"/>
<path d="M79.1745 26.819C79.1745 26.5552 79.1085 26.3171 78.9765 26.1046C78.8445 25.8848 78.5917 25.687 78.2175 25.5111C77.8515 25.3353 77.3085 25.1741 76.59 25.0275C75.9592 24.8883 75.3802 24.7235 74.852 24.533C74.3314 24.3351 73.8841 24.097 73.51 23.8186C73.1361 23.5401 72.8464 23.2104 72.6411 22.8294C72.4358 22.4484 72.3331 22.0089 72.3331 21.5106C72.3331 21.027 72.4395 20.5691 72.6521 20.1368C72.8647 19.7045 73.1691 19.3235 73.5651 18.9938C73.961 18.664 74.4413 18.4039 75.006 18.2134C75.5782 18.0229 76.2157 17.9277 76.92 17.9277C77.9175 17.9277 78.7717 18.0962 79.4827 18.4332C80.2012 18.7629 80.751 19.2135 81.1327 19.785C81.5137 20.3493 81.705 20.9867 81.705 21.6975H79.0537C79.0537 21.3824 78.9727 21.0893 78.8115 20.8182C78.6577 20.5398 78.423 20.3163 78.108 20.1477C77.7922 19.9719 77.3962 19.884 76.92 19.884C76.4655 19.884 76.0875 19.9572 75.7867 20.1038C75.4935 20.243 75.2737 20.4262 75.1267 20.6533C74.9877 20.8805 74.918 21.1296 74.918 21.4007C74.918 21.5985 74.9547 21.778 75.0277 21.9392C75.1087 22.0931 75.2407 22.236 75.4237 22.3679C75.6075 22.4924 75.8565 22.6096 76.1722 22.7196C76.4947 22.8294 76.8982 22.9357 77.382 23.0382C78.291 23.2287 79.0717 23.4742 79.725 23.7747C80.385 24.0677 80.8905 24.4487 81.243 24.9177C81.5947 25.3793 81.771 25.9654 81.771 26.6761C81.771 27.2037 81.657 27.6873 81.4297 28.1269C81.21 28.5592 80.8867 28.9365 80.4615 29.2589C80.0362 29.574 79.527 29.8194 78.933 29.9953C78.3465 30.1711 77.6865 30.2591 76.953 30.2591C75.8752 30.2591 74.962 30.0685 74.2141 29.6875C73.4661 29.2992 72.8977 28.8046 72.5091 28.2038C72.1278 27.5957 71.9371 26.9655 71.9371 26.3134H74.5C74.5294 26.8044 74.665 27.1964 74.907 27.4894C75.156 27.7752 75.4642 27.984 75.831 28.1159C76.2052 28.2405 76.59 28.3027 76.986 28.3027C77.4622 28.3027 77.862 28.2405 78.1845 28.1159C78.5077 27.984 78.753 27.8082 78.9217 27.5883C79.0905 27.3612 79.1745 27.1047 79.1745 26.819Z" fill="#1A1A1A"/>
<path d="M89.547 18.1475V20.0818H82.8375V18.1475H89.547ZM84.7733 15.235H87.4245V26.7531C87.4245 27.1194 87.4755 27.4015 87.5783 27.5994C87.6885 27.7899 87.8385 27.918 88.029 27.984C88.2203 28.05 88.4438 28.083 88.7003 28.083C88.8833 28.083 89.0595 28.0719 89.2283 28.05C89.397 28.028 89.5328 28.006 89.6355 27.984L89.646 30.0063C89.4263 30.0722 89.1698 30.1308 88.8765 30.1821C88.59 30.2334 88.26 30.2591 87.8865 30.2591C87.2775 30.2591 86.739 30.1528 86.2695 29.9403C85.8 29.7205 85.4333 29.3652 85.1693 28.8742C84.9053 28.3833 84.7733 27.7312 84.7733 26.9179V15.235Z" fill="#1A1A1A"/>
<path d="M102.439 20.7192V22.9064H93.9359V20.7192H102.439ZM94.6177 14.037V30.0393H91.8569V14.037H94.6177ZM104.561 14.037V30.0393H101.812V14.037H104.561Z" fill="#1A1A1A"/>
<path d="M107.081 24.2253V23.9724C107.081 23.1152 107.205 22.3202 107.454 21.5875C107.704 20.8475 108.063 20.2064 108.533 19.6642C109.009 19.1147 109.589 18.6897 110.27 18.3893C110.96 18.0816 111.737 17.9277 112.602 17.9277C113.474 17.9277 114.252 18.0816 114.934 18.3893C115.623 18.6897 116.207 19.1147 116.683 19.6642C117.16 20.2064 117.523 20.8475 117.772 21.5875C118.021 22.3202 118.146 23.1152 118.146 23.9724V24.2253C118.146 25.0825 118.021 25.8775 117.772 26.6102C117.523 27.3429 117.16 27.984 116.683 28.5336C116.207 29.0757 115.627 29.5007 114.945 29.8084C114.263 30.1089 113.489 30.2591 112.624 30.2591C111.752 30.2591 110.971 30.1089 110.281 29.8084C109.599 29.5007 109.02 29.0757 108.543 28.5336C108.067 27.984 107.704 27.3429 107.454 26.6102C107.205 25.8775 107.081 25.0825 107.081 24.2253ZM109.731 23.9724V24.2253C109.731 24.7601 109.787 25.2657 109.896 25.7419C110.006 26.2182 110.179 26.6358 110.413 26.9949C110.648 27.3539 110.948 27.636 111.315 27.8412C111.682 28.0463 112.118 28.1489 112.624 28.1489C113.115 28.1489 113.54 28.0463 113.9 27.8412C114.266 27.636 114.567 27.3539 114.802 26.9949C115.037 26.6358 115.209 26.2182 115.319 25.7419C115.436 25.2657 115.495 24.7601 115.495 24.2253V23.9724C115.495 23.4449 115.436 22.9467 115.319 22.4778C115.209 22.0015 115.033 21.5802 114.791 21.2139C114.557 20.8475 114.256 20.5617 113.889 20.3566C113.53 20.1441 113.101 20.0379 112.602 20.0379C112.103 20.0379 111.671 20.1441 111.304 20.3566C110.945 20.5617 110.648 20.8475 110.413 21.2139C110.179 21.5802 110.006 22.0015 109.896 22.4778C109.787 22.9467 109.731 23.4449 109.731 23.9724Z" fill="#1A1A1A"/>
<path d="M123.019 20.5654V30.0393H120.368V18.1475H122.864L123.019 20.5654ZM122.59 23.6538L121.688 23.6427C121.688 22.8222 121.79 22.0638 121.996 21.3677C122.201 20.6716 122.501 20.0672 122.897 19.5543C123.293 19.0341 123.785 18.6348 124.371 18.3563C124.965 18.0705 125.651 17.9277 126.428 17.9277C126.971 17.9277 127.466 18.0083 127.913 18.1695C128.368 18.3234 128.76 18.5688 129.09 18.9058C129.428 19.2429 129.684 19.6752 129.86 20.2027C130.043 20.7303 130.135 21.3677 130.135 22.1151V30.0393H127.484V22.3458C127.484 21.7671 127.397 21.3128 127.22 20.983C127.052 20.6533 126.806 20.4189 126.483 20.2797C126.168 20.1331 125.79 20.0598 125.351 20.0598C124.852 20.0598 124.427 20.1551 124.075 20.3456C123.73 20.5361 123.448 20.7962 123.227 21.1259C123.008 21.4557 122.846 21.8367 122.744 22.269C122.641 22.7013 122.59 23.1628 122.59 23.6538ZM129.97 22.9503L128.727 23.2251C128.727 22.5071 128.826 21.8293 129.024 21.1919C129.23 20.5471 129.527 19.9829 129.915 19.4993C130.311 19.0084 130.799 18.6237 131.378 18.3453C131.957 18.0669 132.621 17.9277 133.369 17.9277C133.978 17.9277 134.52 18.012 134.997 18.1805C135.481 18.3417 135.892 18.5981 136.229 18.9498C136.566 19.3015 136.823 19.7595 136.999 20.3236C137.175 20.8805 137.263 21.5546 137.263 22.3458V30.0393H134.601V22.3349C134.601 21.7341 134.513 21.2688 134.337 20.9391C134.168 20.6094 133.926 20.3823 133.611 20.2577C133.295 20.1258 132.918 20.0598 132.478 20.0598C132.068 20.0598 131.705 20.1368 131.389 20.2906C131.081 20.4372 130.821 20.646 130.608 20.9171C130.396 21.1809 130.234 21.4849 130.124 21.8293C130.022 22.1737 129.97 22.5474 129.97 22.9503Z" fill="#1A1A1A"/>
<path d="M145.237 30.2591C144.357 30.2591 143.562 30.1162 142.85 29.8304C142.147 29.5374 141.545 29.1307 141.046 28.6104C140.555 28.0902 140.177 27.4785 139.913 26.775C139.649 26.0717 139.517 25.3133 139.517 24.5V24.0604C139.517 23.1299 139.653 22.2873 139.924 21.5325C140.196 20.7779 140.573 20.1331 141.058 19.5982C141.541 19.056 142.114 18.642 142.774 18.3563C143.433 18.0705 144.148 17.9277 144.918 17.9277C145.769 17.9277 146.513 18.0705 147.151 18.3563C147.789 18.642 148.317 19.045 148.735 19.5653C149.16 20.0781 149.476 20.69 149.681 21.4007C149.893 22.1114 150 22.8954 150 23.7527V24.8847H140.804V22.9833H147.382V22.7745C147.367 22.2982 147.272 21.8513 147.096 21.4337C146.927 21.016 146.667 20.679 146.315 20.4225C145.963 20.1661 145.494 20.0379 144.907 20.0379C144.467 20.0379 144.075 20.1331 143.73 20.3236C143.393 20.5068 143.11 20.7742 142.883 21.1259C142.656 21.4776 142.48 21.9026 142.355 22.4008C142.238 22.8918 142.18 23.4449 142.18 24.0604V24.5C142.18 25.0203 142.249 25.5038 142.388 25.9508C142.535 26.3904 142.747 26.775 143.026 27.1047C143.305 27.4345 143.642 27.6946 144.038 27.8851C144.434 28.0683 144.885 28.1598 145.391 28.1598C146.029 28.1598 146.597 28.0317 147.096 27.7752C147.595 27.5187 148.027 27.156 148.394 26.6871L149.791 28.0389C149.534 28.4127 149.2 28.7717 148.79 29.116C148.379 29.4531 147.877 29.7279 147.283 29.9403C146.696 30.1528 146.014 30.2591 145.237 30.2591Z" fill="#1A1A1A"/>
</svg>
