<svg width="16" height="13" viewBox="0 0 16 13" fill="none" xmlns="http://www.w3.org/2000/svg">
<path d="M1.37744 5.78861H13.3881L8.78902 1.40937C8.5482 1.18004 8.53887 0.79906 8.76825 0.55831C8.99733 0.317861 9.37842 0.308231 9.61954 0.537546L14.8719 5.53913C15.0991 5.76663 15.2247 6.06878 15.2247 6.39048C15.2247 6.71188 15.0991 7.01433 14.8613 7.25176L9.61925 12.2431C9.50275 12.3541 9.35344 12.4092 9.20413 12.4092C9.04519 12.4092 8.88625 12.3466 8.76795 12.2224C8.53857 11.9816 8.5479 11.6009 8.78872 11.3716L13.4071 6.99236H1.37744C1.04511 6.99236 0.775391 6.72272 0.775391 6.39048C0.775391 6.05825 1.04511 5.78861 1.37744 5.78861Z" fill="white"/>
</svg>
