<svg width="21" height="21" viewBox="0 0 21 21" fill="none" xmlns="http://www.w3.org/2000/svg">
<g clip-path="url(#clip0_2_549)">
<path d="M18.3633 7.23667H9.56329C9.11884 7.23667 8.69662 7.37 8.29662 7.63667C8.20773 6.97 7.92996 6.42556 7.46329 6.00334C6.99662 5.58111 6.45218 5.37 5.82996 5.37C5.34107 5.37 4.89662 5.48111 4.49662 5.70334V4.70334C4.49662 4.52556 4.44107 4.38111 4.32996 4.27C4.21885 4.15889 4.0744 4.10334 3.89662 4.10334H1.42996C1.25218 4.10334 1.10773 4.15889 0.996623 4.27C0.885512 4.38111 0.829956 4.52556 0.829956 4.70334V17.2367C0.829956 17.4144 0.885512 17.5589 0.996623 17.67C1.10773 17.7811 1.25218 17.8367 1.42996 17.8367H3.89662C4.0744 17.8367 4.21885 17.7811 4.32996 17.67C4.44107 17.5589 4.49662 17.4144 4.49662 17.2367V15.3033H17.1633V17.2367C17.1633 17.4144 17.2188 17.5589 17.33 17.67C17.4411 17.7811 17.5855 17.8367 17.7633 17.8367H20.23C20.4077 17.8367 20.5522 17.7811 20.6633 17.67C20.7744 17.5589 20.83 17.4144 20.83 17.2367V9.70334C20.83 9.03667 20.5855 8.45889 20.0966 7.97C19.6077 7.48111 19.03 7.23667 18.3633 7.23667ZM5.82996 6.50334C6.18551 6.50334 6.48551 6.63667 6.72996 6.90334C6.9744 7.17 7.09662 7.48111 7.09662 7.83667C7.09662 8.19223 6.9744 8.49222 6.72996 8.73667C6.48551 8.98111 6.18551 9.10334 5.82996 9.10334C5.4744 9.10334 5.16329 8.98111 4.89662 8.73667C4.62996 8.49222 4.49662 8.19223 4.49662 7.83667C4.49662 7.48111 4.62996 7.17 4.89662 6.90334C5.16329 6.63667 5.4744 6.50334 5.82996 6.50334ZM4.49662 9.90334C4.89662 10.17 5.32996 10.3033 5.79662 10.3033C6.26329 10.3033 6.69662 10.17 7.09662 9.90334V11.6367H4.49662V9.90334ZM19.63 16.6367H18.2966V14.7033C18.2966 14.57 18.2411 14.4478 18.13 14.3367C18.0188 14.2256 17.8966 14.17 17.7633 14.17H3.89662C3.76329 14.17 3.64107 14.2256 3.52996 14.3367C3.41885 14.4478 3.36329 14.57 3.36329 14.7033V16.6367H2.02996V5.30334H3.36329V12.2367C3.36329 12.37 3.41885 12.5033 3.52996 12.6367C3.64107 12.77 3.76329 12.8367 3.89662 12.8367H19.63V16.6367ZM19.63 11.6367H8.29662V9.70334C8.29662 9.34778 8.41885 9.04778 8.66329 8.80334C8.90773 8.55889 9.20773 8.43667 9.56329 8.43667H18.3633C18.7188 8.43667 19.0188 8.55889 19.2633 8.80334C19.5077 9.04778 19.63 9.34778 19.63 9.70334V11.6367Z" fill="#1A1A1A"/>
</g>
<defs>
<clipPath id="clip0_2_549">
<rect width="20" height="20" fill="white" transform="matrix(1 0 0 -1 0.829956 20.97)"/>
</clipPath>
</defs>
</svg>
