<svg width="16" height="16" viewBox="0 0 16 16" fill="none" xmlns="http://www.w3.org/2000/svg">
<path d="M10.9333 -4.57764e-05C9.86667 -4.57764e-05 8.88889 0.319953 8 0.959953C7.11111 0.319953 6.13333 -4.57764e-05 5.06667 -4.57764e-05C4.14222 -4.57764e-05 3.29778 0.231065 2.53333 0.693287C1.76889 1.15551 1.15556 1.76884 0.693333 2.53329C0.231111 3.29773 0 4.14218 0 5.06662C0 6.95106 1.35111 9.27995 4.05333 12.0533C4.87111 12.9066 5.77778 13.76 6.77333 14.6133C7.27111 15.04 7.69778 15.3777 8.05333 15.6266C8.16 15.7333 8.28444 15.7866 8.42667 15.7866C8.56889 15.7866 8.69333 15.7333 8.8 15.6266C9.40444 15.0933 10.0622 14.4533 10.7733 13.7066C12.1956 12.2844 13.3333 10.9333 14.1867 9.65329C15.3956 7.87551 16 6.34662 16 5.06662C16 4.14218 15.7689 3.29773 15.3067 2.53329C14.8444 1.76884 14.2311 1.15551 13.4667 0.693287C12.7022 0.231065 11.8578 -4.57764e-05 10.9333 -4.57764e-05Z" fill="#EB664E"/>
</svg>
