<svg width="14" height="14" viewBox="0 0 14 14" fill="none" xmlns="http://www.w3.org/2000/svg">
<path d="M6.74902 3.39551C8.59473 3.39551 10.1182 4.91895 10.1182 6.76465C10.1182 8.63965 8.59473 10.1338 6.74902 10.1338C4.87402 10.1338 3.37988 8.63965 3.37988 6.76465C3.37988 4.91895 4.87402 3.39551 6.74902 3.39551ZM6.74902 8.96191C7.9502 8.96191 8.91699 7.99512 8.91699 6.76465C8.91699 5.56348 7.9502 4.59668 6.74902 4.59668C5.51855 4.59668 4.55176 5.56348 4.55176 6.76465C4.55176 7.99512 5.54785 8.96191 6.74902 8.96191ZM11.0264 3.27832C11.0264 3.71777 10.6748 4.06934 10.2354 4.06934C9.7959 4.06934 9.44434 3.71777 9.44434 3.27832C9.44434 2.83887 9.7959 2.4873 10.2354 2.4873C10.6748 2.4873 11.0264 2.83887 11.0264 3.27832ZM13.2529 4.06934C13.3115 5.15332 13.3115 8.40527 13.2529 9.48926C13.1943 10.5439 12.96 11.4521 12.1982 12.2432C11.4365 13.0049 10.499 13.2393 9.44434 13.2979C8.36035 13.3564 5.1084 13.3564 4.02441 13.2979C2.96973 13.2393 2.06152 13.0049 1.27051 12.2432C0.508789 11.4521 0.274414 10.5439 0.21582 9.48926C0.157227 8.40527 0.157227 5.15332 0.21582 4.06934C0.274414 3.01465 0.508789 2.07715 1.27051 1.31543C2.06152 0.553711 2.96973 0.319336 4.02441 0.260742C5.1084 0.202148 8.36035 0.202148 9.44434 0.260742C10.499 0.319336 11.4365 0.553711 12.1982 1.31543C12.96 2.07715 13.1943 3.01465 13.2529 4.06934ZM11.8467 10.6318C12.1982 9.78223 12.1104 7.73145 12.1104 6.76465C12.1104 5.82715 12.1982 3.77637 11.8467 2.89746C11.6123 2.34082 11.1729 1.87207 10.6162 1.66699C9.7373 1.31543 7.68652 1.40332 6.74902 1.40332C5.78223 1.40332 3.73145 1.31543 2.88184 1.66699C2.2959 1.90137 1.85645 2.34082 1.62207 2.89746C1.27051 3.77637 1.3584 5.82715 1.3584 6.76465C1.3584 7.73145 1.27051 9.78223 1.62207 10.6318C1.85645 11.2178 2.2959 11.6572 2.88184 11.8916C3.73145 12.2432 5.78223 12.1553 6.74902 12.1553C7.68652 12.1553 9.7373 12.2432 10.6162 11.8916C11.1729 11.6572 11.6416 11.2178 11.8467 10.6318Z" fill="#1A1A1A"/>
</svg>
