<svg width="36" height="36" viewBox="0 0 36 36" fill="none" xmlns="http://www.w3.org/2000/svg">
<g clip-path="url(#clip0_2_741)">
<path d="M18.9332 21.7333C18.6999 21.7333 18.5054 21.6556 18.3499 21.5C17.3388 20.5667 16.8721 19.4389 16.9499 18.1167C16.9499 17.1056 17.1832 16.1722 17.6499 15.3167C17.7277 15.0833 17.8638 14.9472 18.0582 14.9083C18.2527 14.8694 18.4471 14.9083 18.6416 15.025C18.836 15.1417 18.9527 15.2972 18.9916 15.4917C19.0304 15.6861 19.011 15.8611 18.9332 16.0167C18.6221 16.4056 18.4277 16.95 18.3499 17.65C18.1943 18.7389 18.5443 19.6722 19.3999 20.45C19.6332 20.6833 19.6916 20.9556 19.5749 21.2667C19.4582 21.5778 19.2054 21.7333 18.8166 21.7333H18.9332ZM5.98322 24.8833C5.12766 24.8056 4.38877 24.4556 3.76655 23.8333C3.06655 23.1333 2.71655 22.2583 2.71655 21.2083C2.71655 20.1583 3.06655 19.2833 3.76655 18.5833L11.1166 11.1167C11.4277 10.8833 11.6999 10.6889 11.9332 10.5333C12.1666 10.3778 12.3804 10.3389 12.5749 10.4167C12.7693 10.4944 12.9054 10.6111 12.9832 10.7667C13.061 10.9222 13.0804 11.0972 13.0416 11.2917C13.0027 11.4861 12.886 11.6417 12.6916 11.7583C12.4971 11.875 12.3221 12.0111 12.1666 12.1667L4.81655 19.6333C4.34989 20.0222 4.11655 20.5472 4.11655 21.2083C4.11655 21.8694 4.34989 22.3944 4.81655 22.7833C5.04989 23.0944 5.361 23.2889 5.74989 23.3667L7.96655 21.15C8.12211 20.9944 8.31655 20.9167 8.54989 20.9167L9.59989 21.15L10.1832 20.5667V18.7C10.1832 18.5444 10.261 18.3889 10.4166 18.2333C10.5721 18.0778 10.7277 18 10.8832 18L12.8666 17.8833L15.4332 15.3167L15.6666 15.0833C15.7443 14.9278 15.8804 14.8306 16.0749 14.7917C16.2693 14.7528 16.4638 14.7917 16.6582 14.9083C16.8527 15.025 16.9693 15.1806 17.0082 15.375C17.0471 15.5694 16.9888 15.7444 16.8332 15.9L16.4832 16.3667L13.6832 19.1667C13.5277 19.3222 13.3721 19.4 13.2166 19.4H11.6999V20.9167C11.6999 21.15 11.6221 21.3056 11.4666 21.3833L10.4166 22.55C10.261 22.7056 10.0666 22.7444 9.83322 22.6667L8.78322 22.55L6.56655 24.7667C6.411 24.8444 6.21655 24.8833 5.98322 24.8833ZM19.1666 16.4833C17.7666 16.4833 16.4638 16.1722 15.2582 15.55C14.0527 14.9278 13.061 14.0528 12.2832 12.925C11.5054 11.7972 11.0582 10.5333 10.9416 9.13333C10.8249 7.73333 11.0388 6.41111 11.5832 5.16667C12.1277 3.92222 12.9443 2.89167 14.0332 2.075C15.1221 1.25833 16.3666 0.733334 17.7666 0.5C17.9999 0.422222 18.2138 0.5 18.4082 0.733334C18.6027 0.966667 18.661 1.21944 18.5832 1.49166C18.5054 1.76389 18.311 1.93889 17.9999 2.01667C16.2888 2.25 14.9082 3.06667 13.8582 4.46667C12.8082 5.86667 12.3999 7.44167 12.6332 9.19167C12.8666 10.9417 13.6443 12.3611 14.9666 13.45C16.2888 14.5389 17.8054 15.0444 19.5166 14.9667C21.2277 14.8889 22.686 14.2083 23.8916 12.925C25.0971 11.6417 25.6999 10.1444 25.6999 8.43333C25.6999 7.34444 25.4666 6.33333 24.9999 5.4C24.5332 4.46667 23.8332 3.68889 22.8999 3.06667C22.7443 2.91111 22.6666 2.73611 22.6666 2.54167C22.6666 2.34722 22.7249 2.17222 22.8416 2.01667C22.9582 1.86111 23.1138 1.76389 23.3082 1.725C23.5027 1.68611 23.6777 1.74445 23.8332 1.9C25.2332 2.91111 26.2249 4.23333 26.8082 5.86667C27.3916 7.5 27.411 9.15278 26.8666 10.825C26.3221 12.4972 25.3499 13.8583 23.9499 14.9083C22.5499 15.9583 20.9554 16.4833 19.1666 16.4833ZM20.7999 2.01667C20.7221 2.01667 20.6249 1.99722 20.5082 1.95833C20.3916 1.91945 20.2749 1.82222 20.1582 1.66667C20.0416 1.51111 20.0027 1.31667 20.0416 1.08333C20.0804 0.849998 20.236 0.674999 20.5082 0.558334C20.7804 0.441666 21.0332 0.480556 21.2666 0.674999C21.4999 0.869446 21.5777 1.08333 21.4999 1.31667C21.4221 1.55 21.3249 1.725 21.2082 1.84167C21.0916 1.95833 20.9166 2.01667 20.6832 2.01667H20.7999ZM20.2166 9.83333C19.361 9.83333 18.661 9.56111 18.1166 9.01667C17.5721 8.47222 17.2999 7.79167 17.2999 6.975C17.2999 6.15833 17.5721 5.45833 18.1166 4.875C18.661 4.29167 19.3416 4 20.1582 4C20.9749 4 21.6749 4.29167 22.2582 4.875C22.8416 5.45833 23.1332 6.15833 23.1332 6.975C23.1332 7.79167 22.8416 8.47222 22.2582 9.01667C21.6749 9.56111 20.9943 9.83333 20.2166 9.83333ZM20.2166 5.51667C19.8277 5.51667 19.4777 5.65278 19.1666 5.925C18.8554 6.19722 18.6999 6.52778 18.6999 6.91667C18.6999 7.30556 18.8554 7.65556 19.1666 7.96667C19.4777 8.27778 19.8277 8.43333 20.2166 8.43333C20.6054 8.43333 20.936 8.27778 21.2082 7.96667C21.4804 7.65556 21.6166 7.30556 21.6166 6.91667C21.6166 6.52778 21.4804 6.19722 21.2082 5.925C20.936 5.65278 20.6054 5.51667 20.2166 5.51667ZM29.6666 35.5C29.511 35.5 29.3554 35.4222 29.1999 35.2667C29.0443 35.1111 28.9666 34.9556 28.9666 34.8V26.5167V26.1667C28.8888 25.9333 28.9277 25.7194 29.0832 25.525C29.2388 25.3306 29.4332 25.2722 29.6666 25.35H30.4832L22.6666 18.9333L14.7332 25.2333H15.5499C15.861 25.2333 16.0749 25.3306 16.1916 25.525C16.3082 25.7194 16.3666 25.9333 16.3666 26.1667L16.2499 26.5167V34.8C16.2499 34.9556 16.1916 35.1111 16.0749 35.2667C15.9582 35.4222 15.7832 35.5 15.5499 35.5C15.3166 35.5 15.1416 35.4222 15.0249 35.2667C14.9082 35.1111 14.8499 34.9556 14.8499 34.8V26.75H12.6332C12.3221 26.75 12.1082 26.5944 11.9916 26.2833C11.8749 25.9722 11.9332 25.7 12.1666 25.4667L22.1999 17.4167C22.2777 17.3389 22.4138 17.3 22.6082 17.3C22.8027 17.3 22.9777 17.3389 23.1332 17.4167L33.0499 25.4667C33.2832 25.7 33.3416 25.9722 33.2249 26.2833C33.1082 26.5944 32.8943 26.75 32.5832 26.75H30.4832V34.8C30.4832 34.9556 30.4054 35.1111 30.2499 35.2667C30.0943 35.4222 29.8999 35.5 29.6666 35.5ZM22.6666 23.95C22.511 23.95 22.3554 23.8722 22.1999 23.7167C22.0443 23.5611 21.9666 23.3861 21.9666 23.1917C21.9666 22.9972 22.0443 22.8222 22.1999 22.6667C24.8443 20.3333 26.0499 17.9611 25.8166 15.55C25.5832 13.6056 24.5332 11.7 22.6666 9.83333C21.7332 8.9 20.7999 8.16111 19.8666 7.61667C19.5554 7.46111 19.3999 7.22778 19.3999 6.91667C19.3999 6.60555 19.536 6.39167 19.8082 6.275C20.0804 6.15833 20.3332 6.17778 20.5666 6.33333C21.6554 6.95555 22.7054 7.81111 23.7166 8.9C25.8166 11 26.9832 13.1389 27.2166 15.3167C27.5277 18.2722 26.1666 21.1111 23.1332 23.8333C23.0554 23.9111 22.8999 23.95 22.6666 23.95ZM24.5332 35.2667C24.3777 35.2667 24.2221 35.2083 24.0666 35.0917C23.911 34.975 23.8332 34.8 23.8332 34.5667V30.1333C23.8332 29.8222 23.736 29.5694 23.5416 29.375C23.3471 29.1806 23.0943 29.0833 22.7832 29.0833H21.9666C21.6554 29.0833 21.4027 29.1806 21.2082 29.375C21.0138 29.5694 20.9166 29.8222 20.9166 30.1333V34.5667C20.9166 34.8 20.8388 34.975 20.6832 35.0917C20.5277 35.2083 20.3527 35.2667 20.1582 35.2667C19.9638 35.2667 19.7888 35.2083 19.6332 35.0917C19.4777 34.975 19.3999 34.8 19.3999 34.5667V30.1333C19.3999 29.4333 19.6527 28.8306 20.1582 28.325C20.6638 27.8194 21.2666 27.5667 21.9666 27.5667H22.7832C23.4832 27.5667 24.086 27.8194 24.5916 28.325C25.0971 28.8306 25.311 29.4333 25.2332 30.1333V34.5667C25.311 34.8 25.2721 34.975 25.1166 35.0917C24.961 35.2083 24.7666 35.2667 24.5332 35.2667Z" fill="#1A1A1A"/>
</g>
<defs>
<clipPath id="clip0_2_741">
<rect width="35" height="35" fill="white" transform="matrix(1 0 0 -1 0.5 35.5)"/>
</clipPath>
</defs>
</svg>
