<svg width="14" height="14" viewBox="0 0 14 14" fill="none" xmlns="http://www.w3.org/2000/svg">
<path d="M3.29688 13.3896H0.572266V4.62988H3.29688V13.3896ZM1.91992 3.45801C1.07031 3.45801 0.367188 2.72559 0.367188 1.84668C0.367188 0.99707 1.07031 0.293945 1.91992 0.293945C2.79883 0.293945 3.50195 0.99707 3.50195 1.84668C3.50195 2.72559 2.79883 3.45801 1.91992 3.45801ZM13.4629 13.3896H10.7676V9.1416C10.7676 8.11621 10.7383 6.82715 9.33203 6.82715C7.92578 6.82715 7.7207 7.91113 7.7207 9.05371V13.3896H4.99609V4.62988H7.60352V5.83105H7.63281C8.01367 5.15723 8.89258 4.4248 10.2109 4.4248C12.9648 4.4248 13.4922 6.24121 13.4922 8.58496V13.3896H13.4629Z" fill="#1A1A1A"/>
</svg>
