<svg width="36" height="36" viewBox="0 0 36 36" fill="none" xmlns="http://www.w3.org/2000/svg">
<g clip-path="url(#clip0_2_736)">
<path d="M13.8 22.2432C13.8 22.4766 13.8778 22.6516 14.0333 22.7682C14.1889 22.8849 14.3444 22.9432 14.5 22.9432C14.6556 22.9432 14.8111 22.8849 14.9667 22.7682C15.1222 22.6516 15.2 22.496 15.2 22.3016C15.2 22.1071 15.1222 21.9516 14.9667 21.8349C14.8111 21.7182 14.6556 21.6599 14.5 21.6599C14.3444 21.6599 14.1889 21.7182 14.0333 21.8349C13.8778 21.9516 13.8 22.0877 13.8 22.2432ZM17.3 22.2432C17.3 22.4766 17.3778 22.6516 17.5333 22.7682C17.6889 22.8849 17.8444 22.9432 18 22.9432C18.1556 22.9432 18.3111 22.8849 18.4667 22.7682C18.6222 22.6516 18.7 22.496 18.7 22.3016C18.7 22.1071 18.6222 21.9516 18.4667 21.8349C18.3111 21.7182 18.1556 21.6599 18 21.6599C17.8444 21.6599 17.6889 21.7182 17.5333 21.8349C17.3778 21.9516 17.3 22.0877 17.3 22.2432ZM20.8 22.2432C20.8 22.4766 20.8778 22.6516 21.0333 22.7682C21.1889 22.8849 21.3444 22.9432 21.5 22.9432C21.6556 22.9432 21.8111 22.8849 21.9667 22.7682C22.1222 22.6516 22.2 22.496 22.2 22.3016C22.2 22.1071 22.1222 21.9516 21.9667 21.8349C21.8111 21.7182 21.6556 21.6599 21.5 21.6599C21.3444 21.6599 21.1889 21.7182 21.0333 21.8349C20.8778 21.9516 20.8 22.0877 20.8 22.2432ZM7.03333 22.9432C6.1 22.9432 5.24444 22.6905 4.46667 22.1849C3.68889 21.6793 3.125 20.9988 2.775 20.1432C2.425 19.2877 2.34722 18.3932 2.54167 17.4599C2.73611 16.5266 3.16389 15.7293 3.825 15.0682C4.48611 14.4071 5.26389 13.9988 6.15833 13.8432C7.05278 13.6877 7.92778 13.7849 8.78333 14.1349C9.63889 14.4849 10.3389 15.0488 10.8833 15.8266C11.4278 16.6043 11.7 17.4599 11.7 18.3932C11.7 19.6377 11.2528 20.7071 10.3583 21.6016C9.46389 22.496 8.35556 22.9432 7.03333 22.9432ZM7.03333 15.1266C6.41111 15.1266 5.82778 15.3016 5.28333 15.6516C4.73889 16.0016 4.33056 16.4877 4.05833 17.1099C3.78611 17.7321 3.72778 18.3738 3.88333 19.0349C4.03889 19.696 4.35 20.2405 4.81667 20.6682C5.28333 21.096 5.82778 21.3877 6.45 21.5432C7.07222 21.6988 7.69444 21.6405 8.31667 21.3682C8.93889 21.096 9.425 20.6877 9.775 20.1432C10.125 19.5988 10.3 19.0155 10.3 18.3932C10.3 17.4599 9.98889 16.6821 9.36667 16.0599C8.74444 15.4377 7.96667 15.1266 7.03333 15.1266ZM12.9833 31.2266H1.2C0.966667 31.2266 0.791667 31.1682 0.675 31.0516C0.558333 30.9349 0.5 30.7599 0.5 30.5266V28.1932C0.5 26.4043 1.14167 24.8682 2.425 23.5849C3.70833 22.3016 5.26389 21.6599 7.09167 21.6599C8.91944 21.6599 10.4556 22.3016 11.7 23.5849C12.9444 24.8682 13.6056 26.4043 13.6833 28.1932V30.5266C13.6833 30.7599 13.6056 30.9349 13.45 31.0516C13.2944 31.1682 13.1389 31.2266 12.9833 31.2266ZM1.9 29.8266H12.2833V28.1932C12.2833 26.7932 11.7778 25.5877 10.7667 24.5766C9.75556 23.5655 8.53056 23.0599 7.09167 23.0599C5.65278 23.0599 4.42778 23.5655 3.41667 24.5766C2.40556 25.5877 1.9 26.7932 1.9 28.1932V29.8266ZM28.9667 22.9432C28.0333 22.9432 27.1778 22.6905 26.4 22.1849C25.6222 21.6793 25.0583 20.9988 24.7083 20.1432C24.3583 19.2877 24.2611 18.3932 24.4167 17.4599C24.5722 16.5266 24.9806 15.7293 25.6417 15.0682C26.3028 14.4071 27.1 13.9988 28.0333 13.8432C28.9667 13.6877 29.8611 13.7849 30.7167 14.1349C31.5722 14.4849 32.2528 15.0488 32.7583 15.8266C33.2639 16.6043 33.5167 17.4599 33.5167 18.3932C33.5167 19.6377 33.0694 20.7071 32.175 21.6016C31.2806 22.496 30.2111 22.9432 28.9667 22.9432ZM28.9667 15.1266C28.2667 15.1266 27.6444 15.3016 27.1 15.6516C26.5556 16.0016 26.1667 16.4877 25.9333 17.1099C25.7 17.7321 25.6417 18.3738 25.7583 19.0349C25.875 19.696 26.1667 20.2405 26.6333 20.6682C27.1 21.096 27.6639 21.3877 28.325 21.5432C28.9861 21.6988 29.6083 21.6405 30.1917 21.3682C30.775 21.096 31.2417 20.6877 31.5917 20.1432C31.9417 19.5988 32.1167 19.0155 32.1167 18.3932C32.1167 17.4599 31.8056 16.6821 31.1833 16.0599C30.5611 15.4377 29.8222 15.1266 28.9667 15.1266ZM34.8 31.2266H23.0167C22.8611 31.2266 22.7056 31.1682 22.55 31.0516C22.3944 30.9349 22.3167 30.7599 22.3167 30.5266V28.1932C22.3944 26.4043 23.0556 24.8682 24.3 23.5849C25.5444 22.3016 27.0806 21.6599 28.9083 21.6599C30.7361 21.6599 32.2917 22.3016 33.575 23.5849C34.8583 24.8682 35.5 26.4043 35.5 28.1932V30.5266C35.5 30.7599 35.4417 30.9349 35.325 31.0516C35.2083 31.1682 35.0333 31.2266 34.8 31.2266ZM23.7167 29.8266H34.1V28.1932C34.1 26.7932 33.5944 25.5877 32.5833 24.5766C31.5722 23.5655 30.3472 23.0599 28.9083 23.0599C27.4694 23.0599 26.2444 23.5655 25.2333 24.5766C24.2222 25.5877 23.7167 26.7932 23.7167 28.1932V29.8266ZM14.85 18.1599C14.6944 18.1599 14.5389 18.1016 14.3833 17.9849C14.2278 17.8682 14.15 17.7321 14.15 17.5766V15.4766H13.5667C12.9444 15.4766 12.4 15.2627 11.9333 14.8349C11.4667 14.4071 11.2333 13.8821 11.2333 13.2599V6.6099C11.2333 5.98767 11.4667 5.46267 11.9333 5.03489C12.4 4.60712 12.9444 4.39323 13.5667 4.39323H22.3167C22.9389 4.39323 23.4639 4.60712 23.8917 5.03489C24.3194 5.46267 24.5333 5.98767 24.5333 6.6099V13.2599C24.5333 13.8821 24.3194 14.4071 23.8917 14.8349C23.4639 15.2627 22.9389 15.4766 22.3167 15.4766H17.8833L15.3167 18.0432C15.2389 18.1988 15.0833 18.2377 14.85 18.1599ZM13.5667 5.79323C13.3333 5.79323 13.1194 5.87101 12.925 6.02656C12.7306 6.18212 12.6333 6.37656 12.6333 6.6099V13.2599C12.6333 13.4932 12.7306 13.7071 12.925 13.9016C13.1194 14.096 13.3333 14.1932 13.5667 14.1932H14.85C15.0833 14.1932 15.2583 14.2516 15.375 14.3682C15.4917 14.4849 15.55 14.621 15.55 14.7766V15.8266L17.0667 14.3099C17.2222 14.2321 17.3778 14.1932 17.5333 14.1932H22.3167C22.55 14.1932 22.7639 14.096 22.9583 13.9016C23.1528 13.7071 23.25 13.4932 23.25 13.2599V6.6099C23.25 6.37656 23.1528 6.18212 22.9583 6.02656C22.7639 5.87101 22.55 5.79323 22.3167 5.79323H13.5667Z" fill="#1A1A1A"/>
</g>
<defs>
<clipPath id="clip0_2_736">
<rect width="35" height="35" fill="white" transform="matrix(1 0 0 -1 0.5 35.3101)"/>
</clipPath>
</defs>
</svg>
