<svg width="21" height="21" viewBox="0 0 21 21" fill="none" xmlns="http://www.w3.org/2000/svg">
<g clip-path="url(#clip0_2_556)">
<path d="M16.5966 19.77H14.1966C14.0633 19.77 13.93 19.8366 13.7966 19.97C13.6633 20.1033 13.5966 20.2477 13.5966 20.4033C13.5966 20.5589 13.6633 20.6922 13.7966 20.8033C13.93 20.9144 14.0633 20.97 14.1966 20.97H16.5966C16.7744 20.97 16.9189 20.9144 17.03 20.8033C17.1411 20.6922 17.1966 20.5589 17.1966 20.4033C17.1966 20.2477 17.1411 20.1033 17.03 19.97C16.9189 19.8366 16.7744 19.77 16.5966 19.77ZM11.8633 19.77H9.52998C9.3522 19.77 9.20776 19.8366 9.09665 19.97C8.98554 20.1033 8.92998 20.2477 8.92998 20.4033C8.92998 20.5589 8.98554 20.6922 9.09665 20.8033C9.20776 20.9144 9.3522 20.97 9.52998 20.97H11.8633C12.0411 20.97 12.1855 20.9144 12.2966 20.8033C12.4078 20.6922 12.4633 20.5589 12.4633 20.4033C12.4633 20.2477 12.4078 20.1033 12.2966 19.97C12.1855 19.8366 12.0411 19.77 11.8633 19.77ZM20.13 9.16997C19.9966 9.16997 19.8633 9.22553 19.73 9.33664C19.5966 9.44775 19.53 9.59219 19.53 9.76997V12.1033C19.53 12.2811 19.5966 12.4255 19.73 12.5366C19.8633 12.6477 20.0078 12.7033 20.1633 12.7033C20.3189 12.7033 20.4522 12.6477 20.5633 12.5366C20.6744 12.4255 20.73 12.2811 20.73 12.1033V9.76997C20.73 9.59219 20.6744 9.44775 20.5633 9.33664C20.4522 9.22553 20.3078 9.16997 20.13 9.16997ZM20.13 13.8366C19.9966 13.8366 19.8633 13.9033 19.73 14.0366C19.5966 14.17 19.53 14.3033 19.53 14.4366V16.77C19.53 16.9477 19.5966 17.0922 19.73 17.2033C19.8633 17.3144 20.0078 17.37 20.1633 17.37C20.3189 17.37 20.4522 17.3144 20.5633 17.2033C20.6744 17.0922 20.73 16.9477 20.73 16.77V14.4366C20.73 14.3033 20.6744 14.17 20.5633 14.0366C20.4522 13.9033 20.3078 13.8366 20.13 13.8366ZM7.19665 19.77H6.59665V19.2366C6.59665 19.0589 6.54109 18.9144 6.42998 18.8033C6.31887 18.6922 6.17443 18.6366 5.99665 18.6366C5.81887 18.6366 5.67443 18.6922 5.56331 18.8033C5.4522 18.9144 5.39665 19.0589 5.39665 19.2366V20.37C5.39665 20.5477 5.4522 20.6922 5.56331 20.8033C5.67443 20.9144 5.81887 20.97 5.99665 20.97H7.19665C7.32998 20.97 7.4522 20.9144 7.56331 20.8033C7.67443 20.6922 7.72998 20.5589 7.72998 20.4033C7.72998 20.2477 7.67443 20.1033 7.56331 19.97C7.4522 19.8366 7.32998 19.77 7.19665 19.77ZM20.13 5.63664H18.9966C18.8189 5.63664 18.6744 5.69219 18.5633 5.8033C18.4522 5.91441 18.3966 6.05886 18.3966 6.23664C18.3966 6.41441 18.4522 6.55886 18.5633 6.66997C18.6744 6.78108 18.8189 6.83664 18.9966 6.83664H19.53V7.43664C19.53 7.56997 19.5966 7.69219 19.73 7.8033C19.8633 7.91441 20.0078 7.96997 20.1633 7.96997C20.3189 7.96997 20.4522 7.91441 20.5633 7.8033C20.6744 7.69219 20.73 7.56997 20.73 7.43664V6.23664C20.73 6.05886 20.6744 5.91441 20.5633 5.8033C20.4522 5.69219 20.3078 5.63664 20.13 5.63664ZM20.13 18.6366C19.9966 18.6366 19.8633 18.6922 19.73 18.8033C19.5966 18.9144 19.53 19.0589 19.53 19.2366V19.77H18.9966C18.8189 19.77 18.6744 19.8366 18.5633 19.97C18.4522 20.1033 18.3966 20.2477 18.3966 20.4033C18.3966 20.5589 18.4522 20.6922 18.5633 20.8033C18.6744 20.9144 18.8189 20.97 18.9966 20.97H20.13C20.3078 20.97 20.4522 20.9144 20.5633 20.8033C20.6744 20.6922 20.73 20.5477 20.73 20.37V19.2366C20.73 19.0589 20.6744 18.9144 20.5633 18.8033C20.4522 18.6922 20.3078 18.6366 20.13 18.6366ZM16.5966 5.63664H15.9966V1.56997C15.9966 1.39219 15.93 1.24775 15.7966 1.13664C15.6633 1.02553 15.53 0.969969 15.3966 0.969969H1.32998C1.1522 0.969969 1.00776 1.02553 0.896647 1.13664C0.785536 1.24775 0.72998 1.39219 0.72998 1.56997V15.6366C0.72998 15.77 0.785536 15.9033 0.896647 16.0366C1.00776 16.17 1.1522 16.2366 1.32998 16.2366H5.39665V16.77C5.39665 16.9477 5.4522 17.0922 5.56331 17.2033C5.67443 17.3144 5.81887 17.37 5.99665 17.37C6.17443 17.37 6.31887 17.3144 6.42998 17.2033C6.54109 17.0922 6.59665 16.9477 6.59665 16.77V6.83664H16.5966C16.7744 6.83664 16.9189 6.78108 17.03 6.66997C17.1411 6.55886 17.1966 6.41441 17.1966 6.23664C17.1966 6.05886 17.1411 5.91441 17.03 5.8033C16.9189 5.69219 16.7744 5.63664 16.5966 5.63664ZM14.7966 5.63664H5.99665C5.81887 5.63664 5.67443 5.69219 5.56331 5.8033C5.4522 5.91441 5.39665 6.05886 5.39665 6.23664V15.0366H1.92998V2.16997H14.7966V5.63664Z" fill="#1A1A1A"/>
</g>
<defs>
<clipPath id="clip0_2_556">
<rect width="20" height="20" fill="white" transform="matrix(1 0 0 -1 0.72998 20.97)"/>
</clipPath>
</defs>
</svg>
